<svg width="24" height="24" viewBox="0 0 24 24" fill="none" xmlns="http://www.w3.org/2000/svg">
<g id="Component 1/1" clip-path="url(#clip0_287_13)">
<path id="Vector" d="M1.55155 11.6097C1.70154 8.87997 2.69906 6.53269 4.62299 4.61313C6.54692 2.69357 8.88072 1.70181 11.6134 1.5545C11.6134 1.19527 11.6134 0.843792 11.6134 0.492314C11.6134 0.140836 11.7492 0.00127874 12.1131 0.00192484C17.6464 0.0154929 22.5267 3.96962 23.7155 9.40202C24.3507 12.2638 23.9156 15.2591 22.4923 17.8222C21.069 20.3853 18.7561 22.339 15.9901 23.3145C9.33132 25.6798 2.00926 21.7199 0.34522 14.8506C0.124198 13.95 0.0089932 13.0267 0.00193787 12.0995C0.00193787 11.7506 0.134465 11.613 0.47904 11.6104C0.823615 11.6078 1.18371 11.6097 1.55155 11.6097ZM4.90421 18.5314C4.94429 18.4952 4.98696 18.4597 5.02575 18.4216C7.18069 16.2679 9.33412 14.1127 11.486 11.956C11.5625 11.8695 11.6062 11.7588 11.6095 11.6433C11.616 8.62175 11.6175 5.59994 11.614 2.57792C11.614 2.49974 11.6076 2.42157 11.6044 2.34339C8.23553 2.42803 4.484 4.54012 2.94925 8.56791C1.51535 12.3327 2.69841 16.2856 4.90421 18.5314ZM12.4034 11.5891H23.2158C22.9844 5.37295 17.8287 0.888373 12.4021 0.799211L12.4034 11.5891ZM15.4878 21.0163C16.6025 20.588 17.627 19.9547 18.5081 19.1491L12.0013 12.6422L5.49186 19.1465C6.37371 19.953 7.39998 20.5858 8.51675 21.0118C8.51675 20.095 8.51675 19.2169 8.51675 18.3389C8.51675 17.9234 8.63571 17.8026 9.04364 17.802H10.0651V17.508C10.0651 16.7327 10.0651 15.9606 10.0651 15.1872C10.0651 14.8409 10.2015 14.7078 10.5506 14.7058C10.9941 14.7058 11.4376 14.7058 11.881 14.7058C12.2592 14.7058 12.3859 14.8351 12.3872 15.215C12.3872 15.5581 12.3872 15.9011 12.3872 16.2539C12.7609 16.2539 13.0984 16.2539 13.4371 16.2539C13.8017 16.2539 13.9336 16.3831 13.9356 16.7475C13.9356 17.0912 13.9356 17.4356 13.9356 17.802H14.582C15.4839 17.802 15.4839 17.802 15.4839 18.6903V21.0163H15.4878ZM13.0247 12.3922L19.1481 18.5159C20.6997 16.7876 21.5485 14.7498 21.6694 12.3922H13.0247ZM0.790645 12.3922C0.958084 18.4959 6.30902 23.7635 13.013 23.1665C19.1831 22.6147 23.1628 17.3361 23.1919 12.3999H22.4588C22.2842 17.7031 18.0091 22.1722 12.5088 22.4338C10.0302 22.5521 7.76554 21.8788 5.77955 20.3851C3.12897 18.3906 1.75584 15.6957 1.5438 12.3922H0.790645ZM11.5979 21.6682V15.4993H10.8512V21.6017L11.5979 21.6682ZM13.1462 21.6036V17.0473H12.3892V21.6656L13.1462 21.6036ZM13.9556 18.587V21.4776L14.7004 21.2909V18.5876L13.9556 18.587ZM10.0483 21.4776V18.5876H9.30288V21.289L10.0483 21.4776Z" fill="#D61116"/>
<path id="Vector_2" d="M8.08081 7.41942H7.41039C7.405 7.52972 7.40055 7.62664 7.39659 7.72105L7.39491 7.76111L7.35544 7.76817C7.00124 7.83156 6.72172 7.96354 6.53375 8.1484C6.34694 8.33212 6.24782 8.57053 6.25683 8.85483C6.27468 9.10807 6.35332 9.35329 6.48611 9.56973L6.48647 9.57031L6.48647 9.57031C6.66567 9.87164 6.99019 9.98666 7.34361 10.0203L7.38887 10.0246V10.0701V10.8196V10.8448L7.3686 10.8598L7.30395 10.9076L7.26833 10.9339L7.23789 10.9017L6.8648 10.5071H6.21503C6.23635 10.5628 6.25607 10.6178 6.27514 10.671C6.28954 10.7112 6.30357 10.7503 6.31763 10.7879L8.08081 7.41942ZM8.08081 7.41942V7.70862V7.74846L8.11965 7.75736C8.50262 7.84507 8.77704 7.97874 8.95693 8.16243C9.12546 8.33454 9.21514 8.55479 9.2292 8.83452H8.56767C8.54187 8.7479 8.50476 8.66569 8.44494 8.60101C8.37504 8.52543 8.27806 8.47798 8.14471 8.4702L8.0918 8.46712V8.52012V9.26572V9.3072L8.13257 9.31486C8.50203 9.38427 8.78224 9.5245 8.96811 9.72027C9.15323 9.91525 9.24844 10.1691 9.24191 10.4741V10.4741C9.2357 10.7649 9.12937 11.0129 8.94109 11.2009C8.75237 11.3892 8.47861 11.5198 8.13405 11.5693L8.09334 11.5752L8.09122 11.6162C8.08611 11.7155 8.08101 11.8178 8.07546 11.93H7.41214V11.6214V11.5758L7.36671 11.5716C6.98035 11.5362 6.65545 11.4016 6.45737 11.0869L8.08081 7.41942ZM7.33932 9.31906L7.39663 9.32753V9.26959V8.52141V8.46686L7.34229 8.4716C7.21562 8.48264 7.11401 8.52295 7.04166 8.59544C6.96927 8.66797 6.93186 8.76703 6.92248 8.88441C6.91276 9.00593 6.94659 9.10715 7.02275 9.1824C7.09724 9.256 7.20689 9.29947 7.33932 9.31906ZM8.0918 10.8377V10.8987L8.15165 10.8867C8.2779 10.8613 8.38218 10.8148 8.45446 10.74C8.52792 10.6639 8.56342 10.5637 8.56093 10.4419C8.55848 10.3216 8.52304 10.2215 8.45024 10.1476C8.37803 10.0743 8.27477 10.0326 8.14782 10.0172L8.0918 10.0105V10.0669V10.8377Z" fill="#D61116" stroke="white" stroke-width="0.1"/>
<path id="Vector_3" d="M15.5304 7.78237L15.4925 7.75481L15.4105 7.69526L15.4093 7.69433L15.4093 7.69431C15.3032 7.61195 15.2086 7.57443 15.1258 7.5735C15.0447 7.57258 14.9672 7.60668 14.8935 7.68424C14.821 7.76056 14.7908 7.8461 14.798 7.93384C14.8052 8.02277 14.8514 8.12004 14.9434 8.21641L14.9435 8.21653C15.0397 8.31791 15.1381 8.41679 15.2388 8.51318L15.2389 8.51327C15.3571 8.627 15.4621 8.67335 15.5577 8.66815C15.6535 8.66294 15.7544 8.60529 15.8626 8.47752C16.0698 8.23258 16.2745 7.98532 16.4793 7.73793C16.5678 7.63101 16.6563 7.52406 16.7451 7.41727L15.5304 7.78237ZM15.5304 7.78237L15.5603 7.74633M15.5304 7.78237L15.5603 7.74633M15.5603 7.74633L17.1376 5.84849C17.1376 5.84845 17.1376 5.84841 17.1377 5.84838M15.5603 7.74633L17.1377 5.84838M17.8277 6.18741C17.9896 5.98808 17.954 5.74362 17.7827 5.60572C17.6114 5.46782 17.39 5.49352 17.22 5.67342C17.1908 5.7048 17.1637 5.73796 17.1366 5.77106C17.1242 5.78622 17.1119 5.80137 17.0993 5.81633L17.8277 6.18741ZM17.8277 6.18741C17.5777 6.49699 17.3225 6.80289 17.0672 7.10878M17.8277 6.18741L17.0672 7.10878M17.1377 5.84838C17.1512 5.83232 17.164 5.81662 17.1766 5.80121C17.203 5.76883 17.2284 5.73777 17.2564 5.70761C17.3349 5.62471 17.4224 5.58009 17.5068 5.57004C17.5907 5.56004 17.6755 5.58367 17.7513 5.64467C17.9005 5.76472 17.9338 5.97746 17.7889 6.15589L17.7888 6.156C17.5391 6.46523 17.2842 6.77067 17.0291 7.07645C16.9344 7.18993 16.8396 7.30347 16.7451 7.41726L17.1377 5.84838ZM17.0672 7.10878C16.9726 7.2222 16.8779 7.33562 16.7836 7.44922L17.0672 7.10878Z" fill="#D61116" stroke="#D61116" stroke-width="0.1"/>
</g>
<defs>
<clipPath id="clip0_287_13">
<rect width="24" height="24" fill="white"/>
</clipPath>
</defs>
</svg>
