<svg width="24" height="24" viewBox="0 0 24 24" fill="none" xmlns="http://www.w3.org/2000/svg">
<g id="Component 1/2" clip-path="url(#clip0_287_61)">
<path id="Vector" d="M17.3912 -9.98075e-06C17.8565 0.142283 18.2226 0.396307 18.3483 0.895838C18.3823 1.04806 18.3977 1.20386 18.3939 1.35979C18.3966 3.75039 18.3966 6.14065 18.3939 8.53058C18.3952 8.60847 18.3907 8.68635 18.3804 8.76357C18.3473 8.9745 18.2021 9.10527 18.0002 9.10277C17.7834 9.09976 17.6496 8.98753 17.6126 8.77258C17.5981 8.67306 17.5917 8.57252 17.5936 8.47196C17.5936 6.12045 17.5936 3.76926 17.5936 1.41842C17.5936 0.909867 17.4859 0.803147 16.974 0.803147H1.42243C0.918567 0.803147 0.806878 0.91638 0.806878 1.42693V22.5851C0.806878 23.0921 0.917065 23.2013 1.42894 23.2013H16.983C17.4889 23.2013 17.5961 23.0926 17.5961 22.5801C17.5961 21.3926 17.5961 20.2053 17.5961 19.0182C17.5939 18.9401 17.5972 18.8619 17.6061 18.7842C17.6396 18.5427 17.7879 18.4075 18.0068 18.4115C18.2256 18.4155 18.3789 18.5578 18.3889 18.8008C18.4034 19.1515 18.3969 19.5022 18.3969 19.8529C18.3969 20.7825 18.3969 21.7119 18.3969 22.6412C18.3944 23.5255 17.9191 23.9975 17.0331 23.9975H1.38587C0.475812 23.9975 0.00901503 23.5255 0.00901503 22.6066C0.00901503 15.5841 0.00601027 8.56198 0 1.54017C0 0.774588 0.238408 0.23748 0.992696 -0.00201416L17.3912 -9.98075e-06Z" fill="#D61116"/>
<path id="Vector_2" d="M23.6009 6.98102L23.6166 6.94732C23.6607 6.85227 23.7035 6.75995 23.7456 6.66936C23.8161 6.51749 23.8844 6.37047 23.9524 6.22353L23.9491 5.82094C23.9448 5.80925 23.9404 5.79735 23.936 5.78531C23.9229 5.7498 23.9093 5.71305 23.8978 5.6769L23.8975 5.67607L23.8975 5.67607C23.8135 5.3967 23.6266 5.15963 23.3747 5.01268C23.1227 4.86572 22.8245 4.81982 22.54 4.88423L22.5396 4.88432C22.1472 4.96969 21.899 5.23526 21.7021 5.58492C21.7021 5.58494 21.7021 5.58497 21.7021 5.58499L21.6585 5.56046C21.6194 5.6301 21.5147 5.71377 21.4476 5.70776L23.6009 6.98102ZM23.6009 6.98102L23.6287 7.00571M23.6009 6.98102L23.6287 7.00571M23.6287 7.00571C23.7452 7.10944 23.7805 7.2129 23.7729 7.31869C23.7649 7.42902 23.7101 7.54793 23.6316 7.67864L23.6316 7.67866M23.6287 7.00571L23.6316 7.67866M23.6316 7.67866C23.4187 8.03352 23.2133 8.39237 23.0046 8.75679C22.9184 8.90739 22.8317 9.05894 22.7436 9.21155L22.7191 9.25412M23.6316 7.67866L22.7191 9.25412M22.7191 9.25412L22.7612 9.27941M22.7191 9.25412L22.7612 9.27941M22.7612 9.27941C22.7772 9.289 22.7929 9.29843 22.8084 9.30773C22.8999 9.3626 22.9835 9.41275 23.0667 9.464L23.0669 9.46408M22.7612 9.27941L23.0669 9.46408M23.0669 9.46408C23.3682 9.64836 23.5635 9.89971 23.642 10.1785C23.7205 10.4569 23.6839 10.7674 23.5131 11.073C23.104 11.8044 22.6825 12.5289 22.2608 13.2538C22.1608 13.4257 22.0608 13.5977 21.9609 13.7698C21.894 13.8849 21.8108 13.9552 21.7256 13.9852C21.6413 14.015 21.55 14.0071 21.4607 13.9568L21.4606 13.9568M23.0669 9.46408L21.4606 13.9568M21.4606 13.9568C21.3663 13.9038 21.3121 13.8287 21.2958 13.7401C21.2793 13.65 21.3007 13.539 21.3718 13.4144L21.3719 13.4144C21.7027 12.8347 22.036 12.2565 22.3694 11.6781C22.5114 11.4318 22.6534 11.1854 22.7952 10.9389M21.4606 13.9568L22.7952 10.9389M22.7952 10.9389C22.8733 10.8033 22.93 10.6875 22.9602 10.5856C22.9907 10.4832 22.9954 10.3912 22.9646 10.3061C22.934 10.2214 22.8709 10.1508 22.7802 10.0857C22.6899 10.0209 22.5686 9.95893 22.4162 9.89263L22.3763 9.8753L22.3536 9.91236C22.342 9.9314 22.3299 9.9508 22.3177 9.97047C22.2866 10.0206 22.2544 10.0726 22.2242 10.125L22.2242 10.125C21.9536 10.5948 21.6819 11.064 21.4103 11.5333C20.7203 12.7251 20.0302 13.9171 19.357 15.1188L19.4006 15.1432L19.357 15.1188C19.0494 15.6679 18.6648 16.151 18.2751 16.6404C18.1989 16.736 18.1226 16.8319 18.0466 16.9286L18.0465 16.9286C17.6952 17.3765 17.3605 17.8376 17.0426 18.312L17.0426 18.312C16.8929 18.5358 16.7234 18.7015 16.5257 18.8058C16.3284 18.91 16.0998 18.9547 15.8288 18.9313L15.8288 18.931L15.8235 18.9311C15.7703 18.9322 15.7178 18.9442 15.6694 18.9663C15.6209 18.9885 15.5776 19.0203 15.5419 19.0599L15.5419 19.0599L15.5408 19.0612C15.3886 19.2425 15.2408 19.4306 15.0937 19.618C14.9843 19.7572 14.8753 19.896 14.765 20.0313L14.765 20.0313C14.5428 20.3042 14.2683 20.4105 14.0205 20.3746C13.7727 20.3388 13.5398 20.1591 13.404 19.8357C13.3606 19.7318 13.3185 19.6278 13.2734 19.5162C13.2472 19.4514 13.2199 19.3839 13.1907 19.3125L13.1579 19.2319L13.1048 19.3009C13.0881 19.3226 13.072 19.3426 13.0567 19.3617C13.0288 19.3964 13.0036 19.4278 12.9826 19.4596L13.0242 19.4872M22.7952 10.9389L18.0859 16.9595C17.7353 17.4064 17.4014 17.8665 17.0842 18.3398C16.7782 18.7973 16.383 19.0292 15.8245 18.9811C15.7781 18.982 15.7324 18.9925 15.6902 19.0118C15.648 19.0311 15.6102 19.0589 15.5791 19.0934C15.4269 19.2746 15.2805 19.461 15.1341 19.6474C15.0249 19.7866 14.9156 19.9258 14.8038 20.0629C14.3415 20.6305 13.6403 20.5278 13.3578 19.8549C13.3144 19.7509 13.2721 19.6464 13.2269 19.5345C13.2073 19.4862 13.1872 19.4365 13.1662 19.3848C13.1719 19.3775 13.1779 19.3699 13.1841 19.3618L13.1445 19.3314L13.0982 19.3503C13.1018 19.3591 13.1053 19.3679 13.1089 19.3766C13.1036 19.3832 13.0985 19.3895 13.0936 19.3957C13.0669 19.4289 13.0442 19.4571 13.0242 19.4872M13.0242 19.4872C12.7848 19.8419 12.4533 19.9957 12.1122 19.908M13.0242 19.4872L12.9828 19.4592C12.7519 19.8014 12.44 19.9407 12.1247 19.8596L12.1122 19.908M12.1122 19.908C11.7451 19.8134 11.5257 19.5122 11.4916 19.0678L12.1246 19.8596M12.1122 19.908L12.1246 19.8596M11.3309 17.7105C11.3362 17.7419 11.3414 17.7733 11.3466 17.8047C11.3478 17.8017 11.3491 17.7986 11.3503 17.7956C11.3592 17.7739 11.3683 17.7519 11.3774 17.7288L11.3309 17.7105ZM11.3309 17.7105L11.2816 17.7189C11.2861 17.7455 11.2906 17.7722 11.2949 17.7988C11.2983 17.7906 11.3016 17.7825 11.305 17.7743C11.3137 17.7531 11.3225 17.7319 11.3309 17.7105ZM11.2542 17.9064L11.2068 17.8907L11.2542 17.9064ZM11.2542 17.9064L11.2067 17.8907L11.2542 17.9064ZM20.1159 7.4228C20.0908 7.46558 20.0631 7.50702 20.0359 7.54757C20.0224 7.56781 20.009 7.58783 19.9962 7.60768C19.4212 7.34313 19.2494 7.33512 19.1101 7.57211C18.9709 7.80909 19.0661 7.96241 19.5865 8.32967C19.567 8.36325 19.5476 8.39844 19.528 8.43403C19.5066 8.47277 19.4849 8.51199 19.4627 8.55012L19.506 8.57512C18.453 10.3995 17.4012 12.2245 16.3508 14.0502L19.506 8.57527C19.5276 8.53814 19.5486 8.50008 19.5691 8.46293L19.5716 8.45841C19.5913 8.42267 19.6106 8.38786 19.6297 8.3547L19.6526 8.31516L19.6153 8.28882C19.354 8.10439 19.2086 7.97954 19.1433 7.87546C19.1119 7.82539 19.1006 7.78249 19.1026 7.74117C19.1046 7.69886 19.1207 7.65289 19.1532 7.59743C19.186 7.54174 19.2179 7.5052 19.2533 7.48266C19.2878 7.46071 19.3297 7.44939 19.3877 7.45177C19.5085 7.45675 19.6863 7.52015 19.9753 7.6531L20.0146 7.67121L20.0381 7.63483C20.0501 7.61634 20.063 7.59703 20.0763 7.57714C20.1039 7.53586 20.1332 7.49211 20.159 7.4481L20.1159 7.4228ZM20.1159 7.4228L20.159 7.44807L20.1159 7.4228ZM12.1246 19.8596C11.7831 19.7715 11.5744 19.4925 11.5415 19.0642L12.1246 19.8596ZM21.1792 5.81103C21.2481 5.76885 21.3325 5.74832 21.4433 5.75757L20.9548 5.98834L20.9981 6.01336C20.9981 6.01335 20.9981 6.01335 20.9981 6.01335C21.0513 5.92129 21.1095 5.85374 21.1792 5.81103ZM21.4361 14.0004C21.2248 13.8816 21.1782 13.6526 21.3284 13.3896C21.6593 12.8098 21.9927 12.2315 22.3261 11.6531C22.4681 11.4068 22.6101 11.1604 22.7519 10.914L21.4361 14.0004ZM10.4063 20.4582L10.3589 20.4422C10.3589 20.4422 10.3589 20.4422 10.3589 20.4422L10.4063 20.4582ZM15.0015 18.3721C14.791 17.962 14.8039 17.5638 15.0347 17.1702L11.472 16.8282C11.6326 16.8493 11.7816 16.9232 11.8956 17.0382C12.0097 17.1533 12.0824 17.3031 12.1021 17.4641C12.1482 17.842 12.1803 18.2211 12.2139 18.6174C12.2262 18.7628 12.2387 18.9105 12.2522 19.0612L12.2638 19.1911L12.342 19.0868C12.3737 19.0446 12.4017 19.0061 12.4278 18.9701C12.4753 18.9048 12.5166 18.8481 12.5619 18.7936L12.5619 18.7936L12.5624 18.7929C12.6369 18.6998 12.7331 18.6265 12.8426 18.5793C12.9521 18.5321 13.0715 18.5125 13.1902 18.5223C13.309 18.5321 13.4236 18.5709 13.5239 18.6353C13.6242 18.6997 13.7072 18.7878 13.7655 18.8918L13.7656 18.892C13.8499 19.0409 13.9146 19.1986 13.9834 19.3659C14.0158 19.4449 14.0492 19.5261 14.0859 19.6095L14.1188 19.6843L14.1704 19.621C14.2389 19.537 14.3069 19.454 14.3745 19.3715C14.5852 19.1144 14.7913 18.8629 14.9919 18.6072L14.9926 18.6077L14.9969 18.5993C15.0149 18.5647 15.0247 18.5264 15.0257 18.4874C15.0267 18.4484 15.0187 18.4096 15.0025 18.3741L15.0026 18.3741L15.0015 18.3721ZM20.3312 8.67519L20.2879 8.65012L20.2629 8.69348C20.0914 8.99063 19.9201 9.28756 19.7488 9.58436C18.8545 11.1342 17.9623 12.6805 17.0644 14.2359L17.0394 14.2792L17.0827 14.3042L18.4681 15.1034L18.5114 15.1283L18.5364 15.085C19.6037 13.2357 20.662 11.4014 21.7334 9.5441L21.7583 9.50085L21.7151 9.47584L20.3312 8.67519ZM21.5303 6.59993L21.4869 6.57479L21.4619 6.61822L20.663 8.00408L20.6381 8.04735L20.6814 8.07234L22.0647 8.87149L22.1081 8.89653L22.1331 8.85316L22.9304 7.4693L22.9553 7.4261L22.9122 7.40109L21.5303 6.59993ZM16.9723 17.0111L17.009 17.0326L17.0361 16.9998L18.0708 15.7472L18.1085 15.7017L18.0573 15.6721L16.7992 14.9451L16.748 14.9155L16.7273 14.9709L16.1613 16.4881L16.1466 16.5274L16.1829 16.5487L16.9723 17.0111ZM22.226 6.10117H22.0655L22.227 6.19447L22.9207 6.59529L22.9686 6.623L22.9913 6.57248C23.0174 6.51447 23.0517 6.45878 23.0879 6.40131C23.0905 6.39729 23.093 6.39326 23.0955 6.38921C23.1288 6.33651 23.1633 6.28177 23.1902 6.22589C23.2194 6.16523 23.2411 6.10017 23.243 6.02979C23.245 5.95865 23.2266 5.88556 23.1809 5.80933L23.1811 5.80922L23.1784 5.80557C23.1308 5.74017 23.0695 5.68582 22.999 5.64624C22.9284 5.60667 22.8501 5.58279 22.7694 5.57625L22.7694 5.57612L22.7657 5.57609C22.6782 5.57554 22.6066 5.59636 22.5466 5.63339C22.4872 5.67007 22.4421 5.72091 22.4046 5.77622C22.3673 5.83116 22.3361 5.89295 22.3062 5.95226L22.3054 5.9538C22.2795 6.00516 22.2544 6.05491 22.226 6.10117ZM15.9085 17.2127L15.8641 17.1872L15.8397 17.2323C15.8124 17.2826 15.7813 17.3311 15.7496 17.3806C15.7431 17.3907 15.7366 17.4009 15.7301 17.4111C15.6923 17.4704 15.6548 17.5316 15.6273 17.5948C15.5997 17.6583 15.5815 17.7259 15.5838 17.7981C15.5862 17.8709 15.6095 17.9448 15.6595 18.021L15.6593 18.0212L15.6623 18.0249C15.7109 18.0855 15.772 18.1348 15.8416 18.1695C15.9111 18.2041 15.9874 18.2232 16.065 18.2255L16.065 18.2256L16.0685 18.2254C16.2431 18.2184 16.3482 18.1315 16.4244 18.0204C16.4616 17.9661 16.4925 17.9055 16.5215 17.8463C16.5259 17.8372 16.5303 17.8282 16.5347 17.8192C16.5594 17.7686 16.5833 17.7196 16.6105 17.6731L16.6359 17.6296L16.5922 17.6045L15.9085 17.2127Z" fill="#D61116" stroke="white" stroke-width="0.1"/>
<path id="Vector_3" d="M4.36905 4.05126V4.00126V3.19961V3.1981V3.1481H4.41905H14.1612H14.163L14.163 3.14814C14.2614 3.15174 14.36 3.14753 14.4577 3.13556C14.5509 3.12049 14.6182 3.08249 14.6632 3.02939C14.7085 2.97588 14.7348 2.90268 14.7378 2.8112C14.7378 2.8112 14.7378 2.81119 14.7378 2.81118L4.36905 4.05126ZM4.36905 4.05126H4.41905M4.36905 4.05126H4.41905M4.41905 4.05126H4.72708H4.74551H4.76395H4.78239H4.80083H4.81926H4.8377H4.85614H4.87458H4.89302H4.91145H4.92989H4.94833H4.96677H4.9852H5.00364H5.02208H5.04052H5.05896H5.07739H5.09583H5.11427H5.13271H5.15114H5.16958H5.18802H5.20646H5.2249H5.24333H5.26177H5.28021H5.29865H5.31709H5.33552H5.35396H5.3724H5.39084H5.40927H5.42771H5.44615H5.46459H5.48303H5.50146H5.5199H5.53834H5.55678H5.57522H5.59365H5.61209H5.63053H5.64897H5.66741H5.68584H5.70428H5.72272H5.74116H5.7596H5.77803H5.79647H5.81491H5.83335H5.85178H5.87022H5.88866H5.9071H5.92554H5.94397H5.96241H5.98085H5.99929H6.01773H6.03616H6.0546H6.07304H6.09148H6.10992H6.12836H6.14679H6.16523H6.18367H6.20211H6.22055H6.23898H6.25742H6.27586H6.2943H6.31274H6.33117H6.34961H6.36805H6.38649H6.40493H6.42336H6.4418H6.46024H6.47868H6.49712H6.51555H6.53399H6.55243H6.57087H6.58931H6.60775H6.62618H6.64462H6.66306H6.6815H6.69994H6.71837H6.73681H6.75525H6.77369H6.79213H6.81056H6.829H6.84744H6.86588H6.88432H6.90276H6.92119H6.93963H6.95807H6.97651H6.99495H7.01339H7.03182H7.05026H7.0687H7.08714H7.10558H7.12401H7.14245H7.16089H7.17933H7.19777H7.21621H7.23464H7.25308H7.27152H7.28996H7.3084H7.32684H7.34527H7.36371H7.38215H7.40059H7.41903H7.43747H7.4559H7.47434H7.49278H7.51122H7.52966H7.5481H7.56653H7.58497H7.60341H7.62185H7.64029H7.65873H7.67716H7.6956H7.71404H7.73248H7.75092H7.76936H7.78779H7.80623H7.82467H7.84311H7.86155H7.87999H7.89842H7.91686H7.9353H7.95374H7.97218H7.99062H8.00905H8.02749H8.04593H8.06437H8.08281H8.10125H8.11969H8.13812H8.15656H8.175H8.19344H8.21188H8.23032H8.24875H8.26719H8.28563H8.30407H8.32251H8.34095H8.35939H8.37782H8.39626H8.4147H8.43314H8.45158H8.47002H8.48846H8.50689H8.52533H8.54377H8.56221H8.58065H8.59909H8.61753H8.63596H8.6544H8.67284H8.69128H8.70972H8.72816H8.74659H8.76503H8.78347H8.80191H8.82035H8.83879H8.85723H8.87567H8.8941H8.91254H8.93098H8.94942H8.96786H8.9863H9.00474H9.02317H9.04161H9.06005H9.07849H9.09693H9.11537H9.13381H9.15224H9.17068H9.18912H9.20756H9.226H9.24444H9.26288H9.28132H9.29975H9.31819H9.33663H9.35507H9.37351H9.39195H9.41039H9.42882H9.44726H9.4657H9.48414H9.50258H9.52102H9.53946H9.5579H9.57633H9.59477H9.61321H9.63165H9.65009H9.66853H9.68697H9.70541H9.72385H9.74228H9.76072H9.77916H9.7976H9.81604H9.83448H9.85292H9.87136H9.88979H9.90823H9.92667H9.94511H9.96355H9.98199H10.0004H10.0189H10.0373H10.0557H10.0742H10.0926H10.1111H10.1295H10.1479H10.1664H10.1848H10.2033H10.2217H10.2401H10.2586H10.277H10.2954H10.3139H10.3323H10.3508H10.3692H10.3876H10.4061H10.4245H10.443H10.4614H10.4798H10.4983H10.5167H10.5352H10.5536H10.572H10.5905H10.6089H10.6273H10.6458H10.6642H10.6827H10.7011H10.7195H10.738H10.7564H10.7749H10.7933H10.8117H10.8302H10.8486H10.8671H10.8855H10.9039H10.9224H10.9408H10.9593H10.9777H10.9961H11.0146H11.033H11.0514H11.0699H11.0883H11.1068H11.1252H11.1436H11.1621H11.1805H11.199H11.2174H11.2358H11.2543H11.2727H11.2912H11.3096H11.328H11.3465H11.3649H11.3834H11.4018H11.4202H11.4387H11.4571H11.4755H11.494H11.5124H11.5309H11.5493H11.5677H11.5862H11.6046H11.6231H11.6415H11.6599H11.6784H11.6968H11.7153H11.7337H11.7521H11.7706H11.789H11.8075H11.8259H11.8443H11.8628H11.8812H11.8996H11.9181H11.9365H11.955H11.9734H11.9918H12.0103H12.0287H12.0472H12.0656H12.084H12.1025H12.1209H12.1394H12.1578H12.1762H12.1947H12.2131H12.2316H12.25H12.2684H12.2869H12.3053H12.3238H12.3422H12.3606H12.3791H12.3975H12.4159H12.4344H12.4528H12.4713H12.4897H12.5081H12.5266H12.545H12.5635H12.5819H12.6003H12.6188H12.6372H12.6557H12.6741H12.6925H12.711H12.7294H12.7479H12.7663H12.7847H12.8032H12.8216H12.8401H12.8585H12.8769H12.8954H12.9138H12.9323H12.9507H12.9691H12.9876H13.006H13.0244H13.0429H13.0613H13.0798H13.0982H13.1166H13.1351H13.1535H13.172H13.1904H13.2088H13.2273H13.2457H13.2642H13.2826H13.301H13.3195H13.3379H13.3564H13.3748H13.3932H13.4117H13.4301H13.4486H13.467H13.4854H13.5039H13.5223H13.5408H13.5592H13.5776H13.5961H13.6145H13.633H13.6514H13.6698H13.6883H13.7067H13.7252H13.7436H13.762H13.7805H13.7989H13.8173H13.8358H13.8542H13.8727H13.8911H13.9095H13.928H13.9464H13.9649H13.9833H14.0017H14.0202H14.0386H14.0571H14.0755H14.0939H14.1124H14.1308H14.1493H14.1677V4.05129M4.41905 4.05126L14.1677 4.05129M14.1677 4.05129L14.1695 4.05123M14.1677 4.05129L14.1695 4.05123M14.1695 4.05123C14.2817 4.04723 14.3939 4.05738 14.5036 4.08144C14.588 4.10381 14.6476 4.14727 14.6858 4.20328C14.7244 4.25992 14.7434 4.33296 14.7398 4.41747C14.7362 4.50213 14.7114 4.57245 14.6684 4.62516C14.6259 4.67741 14.5626 4.71594 14.475 4.73263C14.3858 4.74719 14.2954 4.75332 14.2051 4.75093V4.75091M14.1695 4.05123L14.2051 4.75091M14.2051 4.75091H14.2038M14.2051 4.75091H14.2038M14.2038 4.75091H14.1842H14.1647H14.1452H14.1256H14.1061H14.0866H14.067H14.0475H14.0279H14.0084H13.9889H13.9693H13.9498H13.9303H13.9107H13.8912H13.8717H13.8521H13.8326H13.8131H13.7935H13.774H13.7544H13.7349H13.7154H13.6958H13.6763H13.6568H13.6372H13.6177H13.5982H13.5786H13.5591H13.5396H13.52H13.5005H13.481H13.4614H13.4419H13.4223H13.4028H13.3833H13.3637H13.3442H13.3247H13.3051H13.2856H13.2661H13.2465H13.227H13.2075H13.1879H13.1684H13.1488H13.1293H13.1098H13.0902H13.0707H13.0512H13.0316H13.0121H12.9926H12.973H12.9535H12.934H12.9144H12.8949H12.8754H12.8558H12.8363H12.8167H12.7972H12.7777H12.7581H12.7386H12.7191H12.6995H12.68H12.6605H12.6409H12.6214H12.6019H12.5823H12.5628H12.5432H12.5237H12.5042H12.4846H12.4651H12.4456H12.426H12.4065H12.387H12.3674H12.3479H12.3284H12.3088H12.2893H12.2697H12.2502H12.2307H12.2111H12.1916H12.1721H12.1525H12.133H12.1135H12.0939H12.0744H12.0549H12.0353H12.0158H11.9962H11.9767H11.9572H11.9376H11.9181H11.8986H11.879H11.8595H11.84H11.8204H11.8009H11.7814H11.7618H11.7423H11.7227H11.7032H11.6837H11.6641H11.6446H11.6251H11.6055H11.586H11.5665H11.5469H11.5274H11.5079H11.4883H11.4688H11.4492H11.4297H11.4102H11.3906H11.3711H11.3516H11.332H11.3125H11.293H11.2734H11.2539H11.2343H11.2148H11.1953H11.1757H11.1562H11.1367H11.1171H11.0976H11.0781H11.0585H11.039H11.0195H10.9999H10.9804H10.9608H10.9413H10.9218H10.9022H10.8827H10.8632H10.8436H10.8241H10.8046H10.785H10.7655H10.746H10.7264H10.7069H10.6873H10.6678H10.6483H10.6287H10.6092H10.5897H10.5701H10.5506H10.5311H10.5115H10.492H10.4724H10.4529H10.4334H10.4138H10.3943H10.3748H10.3552H10.3357H10.3162H10.2966H10.2771H10.2575H10.238H10.2185H10.1989H10.1794H10.1599H10.1403H10.1208H10.1013H10.0817H10.0622H10.0427H10.0231H10.0036H9.98404H9.96451H9.94497H9.92544H9.9059H9.88636H9.86683H9.84729H9.82775H9.80822H9.78868H9.76915H9.74961H9.73007H9.71054H9.691H9.67146H9.65193H9.63239H9.61286H9.59332H9.57378H9.55425H9.53471H9.51518H9.49564H9.4761H9.45657H9.43703H9.41749H9.39796H9.37842H9.35889H9.33935H9.31981H9.30028H9.28074H9.2612H9.24167H9.22213H9.2026H9.18306H9.16352H9.14399H9.12445H9.10491H9.08538H9.06584H9.0463H9.02677H9.00723H8.9877H8.96816H8.94862H8.92909H8.90955H8.89001H8.87048H8.85094H8.8314H8.81187H8.79233H8.7728H8.75326H8.73372H8.71419H8.69465H8.67511H8.65558H8.63604H8.6165H8.59697H8.57743H8.5579H8.53836H8.51882H8.49929H8.47975H8.46021H8.44068H8.42114H8.4016H8.38207H8.36253H8.34299H8.32346H8.30392H8.28438H8.26485H8.24531H8.22578H8.20624H8.1867H8.16717H8.14763H8.12809H8.10856H8.08902H8.06948H8.04995H8.03041H8.01087H7.99134H7.9718H7.95226H7.93273H7.91319H7.89365H7.87412H7.85458H7.83504H7.81551H7.79597H7.77643H7.7569H7.73736H7.71783H7.69829H7.67875H7.65922H7.63968H7.62014H7.60061H7.58107H7.56153H7.542H7.52246H7.50292H7.48339H7.46385H7.44431H7.42478H7.40524H7.3857H7.36617H7.34663H7.32709H7.30756H7.28802H7.26848H7.24895H7.22941H7.20987H7.19034H7.1708H7.15126H7.13173H7.11219H7.09265H7.07312H7.05358H7.03404H7.01451H6.99497H6.97543H6.9559H6.93636H6.91682H6.89728H6.87775H6.85821H6.83867H6.81914H6.7996H6.78006H6.76053H6.74099H6.72145H6.70192H6.68238H6.66284H6.64331H6.62377H6.60423H6.5847H6.56516H6.54562H6.52609H6.50655H6.48701H6.46748H6.44794H6.4284H6.40886H6.38933H6.36979H6.35025H6.33072H6.31118H6.29164H6.27211H6.25257H6.23303H6.2135H6.19396H6.17442H6.15489H6.13535H6.11581H6.09628H6.07674H6.0572H6.03766H6.01813H5.99859H5.97905H5.95952H5.93998H5.92044H5.90091H5.88137H5.86183H5.84229H5.82276H5.80322H5.78368H5.76415H5.74461H5.72507H5.70554H5.686H5.66646H5.64693H5.62739H5.60785H5.58831H5.56878H5.54924H5.5297H5.51017H5.49063H5.47109H5.45156H5.43202H5.41248H5.39294H5.37341H5.35387H5.33433H5.3148H5.29526H5.27572H5.25618H5.23665H5.21711H5.19757H5.17804H5.1585H5.13896H5.11942H5.09989H5.08035H5.06081H5.04128H5.02174H5.0022H4.98267H4.96313H4.94359H4.92405H4.90452H4.88498H4.86544H4.84591H4.82637H4.80683H4.78729H4.76776H4.74822H4.72868H4.70914H4.68961H4.67007H4.65053H4.631H4.61146H4.59192H4.57238H4.55285H4.53331H4.51377H4.49424H4.4747H4.45516H4.43562H4.41609H4.39655H4.37701H4.35747H4.33794H4.3184H4.29886H4.27933H4.25979H4.24025H4.22071H4.20118C3.9579 4.75091 3.83026 4.72204 3.75875 4.65066C3.68725 4.5793 3.65841 4.45201 3.65816 4.20964L3.60816 4.20969H3.65816C3.65816 4.06095 3.65783 3.91234 3.65749 3.76381C3.65683 3.46706 3.65616 3.17065 3.65816 2.87427L3.60816 2.87393L3.65816 2.87442C3.6596 2.72548 3.6946 2.62619 3.75714 2.56164C3.81984 2.49692 3.91853 2.45851 4.06636 2.44987L4.06344 2.39996L4.06619 2.44988C4.10087 2.44797 4.13429 2.44859 4.16964 2.44925C4.18831 2.4496 4.20751 2.44996 4.22772 2.44996H4.24717H4.26661H4.28606H4.3055H4.32495H4.34439H4.36384H4.38328H4.40273H4.42217H4.44162H4.46106H4.48051H4.49996H4.5194H4.53885H4.55829H4.57774H4.59718H4.61663H4.63607H4.65552H4.67496H4.69441H4.71385H4.7333H4.75274H4.77219H4.79164H4.81108H4.83053H4.84997H4.86942H4.88886H4.90831H4.92775H4.9472H4.96664H4.98609H5.00553H5.02498H5.04442H5.06387H5.08332H5.10276H5.12221H5.14165H5.1611H5.18054H5.19999H5.21943H5.23888H5.25832H5.27777H5.29721H5.31666H5.3361H5.35555H5.37499H5.39444H5.41389H5.43333H5.45278H5.47222H5.49167H5.51111H5.53056H5.55H5.56945H5.58889H5.60834H5.62778H5.64723H5.66668H5.68612H5.70557H5.72501H5.74446H5.7639H5.78335H5.80279H5.82224H5.84168H5.86113H5.88057H5.90002H5.91946H5.93891H5.95835H5.9778H5.99725H6.01669H6.03614H6.05558H6.07503H6.09447H6.11392H6.13336H6.15281H6.17225H6.1917H6.21114H6.23059H6.25004H6.26948H6.28893H6.30837H6.32782H6.34726H6.36671H6.38615H6.4056H6.42504H6.44449H6.46393H6.48338H6.50282H6.52227H6.54171H6.56116H6.58061H6.60005H6.6195H6.63894H6.65839H6.67783H6.69728H6.71672H6.73617H6.75561H6.77506H6.7945H6.81395H6.8334H6.85284H6.87229H6.89173H6.91118H6.93062H6.95007H6.96951H6.98896H7.0084H7.02785H7.04729H7.06674H7.08618H7.10563H7.12507H7.14452H7.16397H7.18341H7.20286H7.2223H7.24175H7.26119H7.28064H7.30008H7.31953H7.33897H7.35842H7.37786H7.39731H7.41675H7.4362H7.45565H7.47509H7.49454H7.51398H7.53343H7.55287H7.57232H7.59176H7.61121H7.63065H7.6501H7.66954H7.68899H7.70844H7.72788H7.74733H7.76677H7.78622H7.80566H7.82511H7.84455H7.864H7.88344H7.90289H7.92233H7.94178H7.96122H7.98067H8.00011H8.01956H8.03901H8.05845H8.0779H8.09734H8.11679H8.13623H8.15568H8.17512H8.19457H8.21401H8.23346H8.2529H8.27235H8.29179H8.31124H8.33069H8.35013H8.36958H8.38902H8.40847H8.42791H8.44736H8.4668H8.48625H8.50569H8.52514H8.54458H8.56403H8.58348H8.60292H8.62237H8.64181H8.66126H8.6807H8.70015H8.71959H8.73904H8.75848H8.77793H8.79737H8.81682H8.83626H8.85571H8.87515H8.8946H8.91405H8.93349H8.95294H8.97238H8.99183H9.01127H9.03072H9.05016H9.06961H9.08905H9.1085H9.12794H9.14739H9.16683H9.18628H9.20573H9.22517H9.24462H9.26406H9.28351H9.30295H9.3224H9.34184H9.36129H9.38073H9.40018H9.41962H9.43907H9.45851H9.47796H9.49741H9.51685H9.5363H9.55574H9.57519H9.59463H9.61408H9.63352H9.65297H9.67241H9.69186H9.7113H9.73075H9.7502H9.76964H9.78909H9.80853H9.82798H9.84742H9.86687H9.88631H9.90576H9.9252H9.94465H9.96409H9.98354H10.003H10.0224H10.0419H10.0613H10.0808H10.1002H10.1197H10.1391H10.1585H10.178H10.1974H10.2169H10.2363H10.2558H10.2752H10.2947H10.3141H10.3336H10.353H10.3724H10.3919H10.4113H10.4308H10.4502H10.4697H10.4891H10.5086H10.528H10.5475H10.5669H10.5863H10.6058H10.6252H10.6447H10.6641H10.6836H10.703H10.7225H10.7419H10.7614H10.7808H10.8002H10.8197H10.8391H10.8586H10.878H10.8975H10.9169H10.9364H10.9558H10.9753H10.9947H11.0141H11.0336H11.053H11.0725H11.0919H11.1114H11.1308H11.1503H11.1697H11.1891H11.2086H11.228H11.2475H11.2669H11.2864H11.3058H11.3253H11.3447H11.3642H11.3836H11.403H11.4225H11.4419H11.4614H11.4808H11.5003H11.5197H11.5392H11.5586H11.5781H11.5975H11.6169H11.6364H11.6558H11.6753H11.6947H11.7142H11.7336H11.7531H11.7725H11.792H11.8114H11.8308H11.8503H11.8697H11.8892H11.9086H11.9281H11.9475H11.967H11.9864H12.0059H12.0253H12.0447H12.0642H12.0836H12.1031H12.1225H12.142H12.1614H12.1809H12.2003H12.2198H12.2392H12.2586H12.2781H12.2975H12.317H12.3364H12.3559H12.3753H12.3948H12.4142H12.4337H12.4531H12.4725H12.492H12.5114H12.5309H12.5503H12.5698H12.5892H12.6087H12.6281H12.6475H12.667H12.6864H12.7059H12.7253H12.7448H12.7642H12.7837H12.8031H12.8226H12.842H12.8614H12.8809H12.9003H12.9198H12.9392H12.9587H12.9781H12.9976H13.017H13.0365H13.0559H13.0753H13.0948H13.1142H13.1337H13.1531H13.1726H13.192H13.2115H13.2309H13.2504H13.2698H13.2892H13.3087H13.3281H13.3476H13.367H13.3865H13.4059H13.4254H13.4448H13.4643H13.4837H13.5031H13.5226H13.542H13.5615H13.5809H13.6004H13.6198H13.6393H13.6587H13.6782H13.6976H13.717H13.7365H13.7559H13.7754H13.7948H13.8143H13.8337H13.8532H13.8726H13.892H13.9115H13.9309H13.9504H13.9698H13.9893H14.0087H14.0282H14.0476H14.0671H14.0865H14.1059H14.1254H14.1448H14.1643L14.1837 2.44997L14.1848 2.44995M14.2038 4.75091L14.1848 2.44995M14.1848 2.44995C14.2895 2.44769 14.3942 2.45786 14.4965 2.48024L14.1848 2.44995Z" fill="#D61116" stroke="#D61116" stroke-width="0.1"/>
<path id="Vector_4" d="M5.0341 15.6072C5.70919 15.6125 6.36721 15.82 6.92333 16.2029C7.18828 16.3833 7.26642 16.5952 7.1372 16.8077C7.00797 17.0201 6.76856 17.0542 6.50411 16.8783C6.11048 16.6063 5.65106 16.445 5.17384 16.4113C3.7459 16.3222 2.55487 17.3543 2.41563 18.8013C2.2829 20.1666 3.30264 21.3926 4.73008 21.5835C6.05885 21.7614 7.33453 20.7914 7.56342 19.4246C7.58646 19.2868 7.58897 19.1455 7.60549 19.0062C7.63555 18.7497 7.80984 18.5913 8.03723 18.6094C8.25661 18.6264 8.39484 18.7937 8.39985 19.0473C8.43741 20.9672 6.60078 22.6146 4.68 22.3832C2.97709 22.1777 1.73396 20.8916 1.61576 19.2116C1.47853 17.2696 3.07175 15.5906 5.0341 15.6072Z" fill="#D61116"/>
<path id="Vector_5" d="M11.1891 9.19798H7.02349C6.93776 9.20058 6.85195 9.1979 6.76655 9.18996C6.5617 9.16541 6.443 9.04617 6.41996 8.83924C6.39692 8.63231 6.50912 8.47749 6.71497 8.42488C6.79822 8.40575 6.88349 8.39683 6.9689 8.39833C9.79372 8.39833 12.6184 8.39833 15.4429 8.39833C15.5446 8.39451 15.6463 8.40824 15.7434 8.43891C15.9252 8.50505 16.0113 8.64885 15.9908 8.84325C15.9869 8.9262 15.9543 9.00523 15.8987 9.06689C15.8431 9.12855 15.7679 9.16903 15.6858 9.18144C15.5932 9.1956 15.4994 9.20046 15.4058 9.19597L11.1891 9.19798Z" fill="#D61116"/>
<path id="Vector_6" d="M7.1963 11.6014H3.40532C3.00163 11.6014 2.81431 11.4717 2.81632 11.2006C2.81832 10.9295 3.00714 10.7998 3.41133 10.7998C5.93865 10.7998 8.4658 10.7998 10.9928 10.7998C11.0936 10.7971 11.1943 10.8055 11.2933 10.8248C11.4961 10.8709 11.5938 11.0117 11.5898 11.2156C11.5843 11.4095 11.4806 11.5393 11.2893 11.5789C11.1901 11.5958 11.0894 11.603 10.9888 11.6004C9.72428 11.6018 8.46012 11.6021 7.1963 11.6014Z" fill="#D61116"/>
<path id="Vector_7" d="M9.21224 5.60407H13.0037C13.4079 5.60407 13.5982 5.73384 13.5962 6.0049C13.5942 6.27596 13.4019 6.40573 12.9992 6.40573C10.4716 6.40573 7.94407 6.40573 5.41676 6.40573C5.3077 6.40906 5.19865 6.39862 5.0922 6.37466C4.90188 6.32456 4.80972 6.17926 4.81673 5.99037C4.82374 5.80148 4.92392 5.6642 5.11725 5.62612C5.21654 5.60975 5.31718 5.60304 5.41776 5.60608C6.68392 5.60407 7.94875 5.6034 9.21224 5.60407Z" fill="#D61116"/>
<path id="Vector_8" d="M5.20239 13.5975C4.57031 13.5975 3.93773 13.5975 3.30565 13.5975C2.98611 13.5975 2.81031 13.4472 2.81581 13.1922C2.82082 12.9497 2.99763 12.8009 3.30114 12.8004C4.57399 12.7977 5.84649 12.7977 7.11867 12.8004C7.41467 12.8004 7.59849 12.9602 7.59949 13.2012C7.60049 13.4422 7.42068 13.5975 7.12267 13.5991C6.48258 13.5996 5.84249 13.5975 5.20239 13.5975Z" fill="#D61116"/>
<path id="Vector_9" d="M4.89437 19.3599C5.36066 18.8895 5.78288 18.4521 6.22063 18.0307C6.3208 17.936 6.47557 17.8418 6.59878 17.8498C6.72199 17.8578 6.89528 17.9786 6.92584 18.0843C6.94224 18.16 6.94224 18.2384 6.92583 18.3141C6.90941 18.3898 6.87697 18.4611 6.83068 18.5232C6.51664 18.8794 6.16804 19.2046 5.83197 19.5413C5.70525 19.6681 5.58154 19.8003 5.44881 19.9181C5.12025 20.2067 4.68801 20.2152 4.36646 19.9216C4.06595 19.6485 3.78297 19.3584 3.50399 19.0643C3.3327 18.8839 3.33821 18.654 3.49147 18.4971C3.65274 18.3313 3.88314 18.3288 4.07396 18.5147C4.34693 18.7807 4.60537 19.0608 4.89437 19.3599Z" fill="#D61116"/>
<path id="Vector_10" d="M14.1882 11.6004C13.744 11.6004 13.2997 11.6064 12.8555 11.6004C12.586 11.5954 12.4342 11.4611 12.4157 11.2432C12.3972 11.0252 12.5219 10.8454 12.7548 10.8208C12.9877 10.7963 13.2366 10.8023 13.478 10.8018C14.1171 10.7998 14.7562 10.7998 15.3953 10.8018C15.4808 10.7999 15.5663 10.8056 15.6507 10.8188C15.8731 10.8579 16.0054 11.0132 15.9898 11.2221C15.9743 11.4311 15.8531 11.5779 15.6392 11.5884C15.2886 11.6059 14.938 11.5999 14.5874 11.6034C14.4547 11.6034 14.3225 11.6034 14.1898 11.6034L14.1882 11.6004Z" fill="#D61116"/>
<path id="Vector_11" d="M10.1994 13.5975C9.76268 13.5975 9.32594 13.6 8.88919 13.5975C8.59168 13.5975 8.40736 13.4412 8.40586 13.2032C8.40436 12.9652 8.59118 12.8024 8.88568 12.8024C9.76685 12.7991 10.648 12.7991 11.5292 12.8024C11.8207 12.8024 12.0065 12.9748 11.9995 13.2127C11.9925 13.4507 11.8157 13.596 11.5332 13.5985C11.0884 13.6005 10.6437 13.5975 10.1994 13.5975Z" fill="#D61116"/>
</g>
<defs>
<clipPath id="clip0_287_61">
<rect width="24" height="24" fill="white"/>
</clipPath>
</defs>
</svg>
