<svg width="24" height="24" viewBox="0 0 24 24" fill="none" xmlns="http://www.w3.org/2000/svg">
<g id="Component 1/4">
<path id="Vector" d="M10.1269 0C10.7099 0.128916 11.1257 0.503774 11.5308 0.914928C12.715 2.11648 13.9191 3.298 15.1051 4.49705C16.0707 5.47268 15.7796 7.0447 14.5416 7.57163C14.2269 7.71688 13.8747 7.76062 13.534 7.69679C13.4677 7.67724 13.397 7.67774 13.3309 7.69823C13.2648 7.71872 13.2063 7.75828 13.1627 7.81194C13.0264 7.94638 12.8828 8.07319 12.7325 8.19181C13.5616 8.67555 13.8477 9.62427 13.1833 10.4772C14.2066 11.3705 15.2293 12.2635 16.2517 13.1563L20.4548 16.8198C21.312 17.5639 22.1674 18.3055 23.0172 19.0564C23.6402 19.6053 23.984 20.2949 23.9997 21.1291C24.0085 21.707 23.8395 22.2736 23.5156 22.7524C23.1918 23.2312 22.7286 23.5991 22.1887 23.8063C21.6615 24.014 21.0831 24.055 20.5318 23.9237C19.9805 23.7924 19.4828 23.4952 19.1059 23.0722C17.6275 21.3982 16.1678 19.7079 14.7006 18.0245L10.5627 13.2721C10.537 13.2427 10.5095 13.2152 10.4838 13.1876C9.475 13.769 8.86759 13.6607 8.19255 12.7377C8.03663 12.9123 7.87945 13.0737 7.74231 13.2508C7.70053 13.3215 7.68521 13.4046 7.6991 13.4855C7.8137 14.3472 7.43798 15.1013 6.69719 15.4762C5.96829 15.8467 5.11103 15.7077 4.49923 15.1007C3.18422 13.7965 1.8811 12.4836 0.569214 11.1782C0.27177 10.8821 0.11522 10.5161 0 10.1249V9.5617C0.0123469 9.54194 0.0226282 9.52097 0.0306831 9.49912C0.343782 8.3639 1.10774 7.84886 2.25682 7.99029C2.33737 7.99061 2.41479 7.95912 2.47223 7.90268C4.2857 6.09577 6.09583 4.28552 7.90262 2.47193C7.93233 2.43619 7.95453 2.39482 7.96787 2.3503C7.98121 2.30579 7.98543 2.25904 7.98027 2.21285C7.85503 1.39179 8.22574 0.604529 8.95213 0.227168C9.14312 0.128291 9.35916 0.0763489 9.5633 0.00250376L10.1269 0ZM8.53132 3.26734L3.29067 8.50033L7.18061 12.3885L12.4219 7.15109C11.1294 5.8613 9.81565 4.55024 8.53132 3.26734ZM11.1463 12.5117L16.1559 18.2692L18.2693 16.1596L12.5146 11.1431L11.1463 12.5117ZM18.0502 20.4438C18.6519 21.1322 19.2399 21.8206 19.8461 22.4877C20.1742 22.8501 20.6057 23.029 21.0935 23.051C21.4822 23.0666 21.8663 22.9627 22.194 22.7532C22.5216 22.5437 22.7771 22.2387 22.9257 21.8794C23.0731 21.5234 23.1048 21.13 23.0164 20.755C22.928 20.3799 22.7239 20.0421 22.4329 19.7892C21.8067 19.226 21.1655 18.6797 20.5299 18.1271C20.5006 18.1034 20.4692 18.0824 20.436 18.0645L18.0502 20.4438ZM8.8989 1.86678C8.89201 2.16028 9.01976 2.38995 9.22265 2.59146C10.2183 3.58274 11.2119 4.57548 12.2033 5.56968C12.524 5.88946 12.8377 6.21551 13.1664 6.52591C13.4532 6.79626 13.7926 6.86447 14.1627 6.71365C14.5203 6.56596 14.7131 6.2881 14.7407 5.90386C14.7626 5.59596 14.6343 5.34814 14.4182 5.13224C13.1303 3.84934 11.8441 2.56455 10.5596 1.2779C10.5113 1.22704 10.4594 1.17977 10.4043 1.13646C10.0912 0.907419 9.75742 0.866741 9.41364 1.04009C9.07925 1.20718 8.90767 1.49067 8.8989 1.86678ZM1.8667 8.89333C1.47219 8.90835 1.18101 9.08921 1.02195 9.4528C0.854759 9.8358 0.92552 10.1938 1.2167 10.4866C2.53673 11.8146 3.86093 13.1384 5.1893 14.458C5.2738 14.5526 5.3767 14.629 5.49171 14.6825C5.60672 14.7361 5.73145 14.7657 5.85827 14.7695C5.9851 14.7733 6.11137 14.7512 6.22939 14.7046C6.3474 14.6581 6.45469 14.588 6.54471 14.4986C6.63472 14.4092 6.70559 14.3025 6.75297 14.1849C6.80035 14.0672 6.82326 13.9412 6.8203 13.8144C6.81734 13.6876 6.78857 13.5628 6.73576 13.4475C6.68294 13.3322 6.60717 13.2289 6.51309 13.1438C5.19306 11.8133 3.86928 10.4883 2.54174 9.16869C2.45491 9.07795 2.34991 9.00652 2.2336 8.95908C2.11728 8.91163 1.99226 8.88923 1.8667 8.89333ZM9.03666 12.0643C9.03666 12.3403 9.12809 12.4867 9.30969 12.5649C9.39859 12.6082 9.49925 12.6211 9.5962 12.6017C9.69315 12.5822 9.78103 12.5315 9.84634 12.4573C10.7197 11.5862 11.592 10.7136 12.4632 9.83955C12.668 9.63304 12.6674 9.35518 12.4864 9.16869C12.3054 8.9822 12.008 8.97719 11.7976 9.18684C10.928 10.0504 10.0615 10.9178 9.19822 11.7889C9.11056 11.8797 9.06735 12.0105 9.03666 12.0643ZM19.0383 16.8254L16.8272 19.0339L17.3908 19.6822L19.6833 17.3905L19.0383 16.8254Z" fill="#D61116"/>
</g>
</svg>
