<svg width="24" height="28" viewBox="0 0 24 28" fill="none" xmlns="http://www.w3.org/2000/svg">
<g id="Services" clip-path="url(#clip0_287_39)">
<path id="Vector" d="M16.3875 1.29237L16.3875 1.29237C18.0241 1.59531 19.6695 1.84943 21.3144 2.10346C21.493 2.13104 21.6716 2.15862 21.8502 2.18627L21.8502 2.18627C22.2421 2.24663 22.5591 2.40866 22.7781 2.6517C22.9968 2.89449 23.1208 3.22163 23.1208 3.61847C23.1208 4.96817 23.1276 6.3175 23.1344 7.66662C23.1498 10.7418 23.1653 13.816 23.1004 16.8912C23.0561 19.0096 22.5122 20.8172 21.5004 22.3138C20.4885 23.8105 19.0067 24.9991 17.082 25.8761L17.0819 25.8762C16.2747 26.2455 15.4615 26.5952 14.6477 26.9451C14.0103 27.2192 13.3726 27.4934 12.7371 27.7774L12.7371 27.7773L12.7356 27.7781C12.5017 27.8919 12.2451 27.951 11.985 27.951C11.725 27.951 11.4684 27.8919 11.2345 27.778L11.2331 27.7774C10.6151 27.4999 9.99319 27.2341 9.37164 26.9685C8.4056 26.5556 7.4405 26.1431 6.49294 25.6879C3.32351 24.1595 1.47803 21.6245 0.945747 18.1377C0.878512 17.6619 0.846748 17.1817 0.850723 16.7011L0.850722 16.7006C0.843428 12.3762 0.84197 8.05186 0.846346 3.72748V3.72743C0.846346 3.25438 0.964023 2.89888 1.19135 2.64678C1.41887 2.39449 1.76241 2.23887 2.22807 2.1784C4.95194 1.82589 7.67072 1.42032 10.3049 0.589578L10.2899 0.541979L10.3049 0.589577C10.6407 0.483625 10.97 0.350757 11.2967 0.218921C11.4379 0.161906 11.5787 0.105085 11.7194 0.0507174L12.2494 0.0500141C13.577 0.640432 14.9686 1.02921 16.3875 1.29237ZM1.74163 17.8511L1.74177 17.8521C2.21239 21.21 3.98014 23.6233 7.05655 25.039C7.99426 25.4706 8.94392 25.8793 9.89312 26.2879C10.456 26.5302 11.0188 26.7725 11.5788 27.0193C11.7064 27.0819 11.8466 27.1145 11.9887 27.1145C12.1308 27.1145 12.271 27.0819 12.3986 27.0193C13.8599 26.3711 15.3249 25.7304 16.7935 25.0973L16.7937 25.0972C17.7461 24.683 18.6265 24.1477 19.3922 23.4323L19.3923 23.4322C21.3658 21.5794 22.3018 19.2842 22.2952 16.5843C22.2893 14.249 22.2913 11.9136 22.2932 9.57808C22.2942 8.41034 22.2952 7.2426 22.2952 6.07491V6.07015V6.06539V6.06062V6.05586V6.0511V6.04634V6.04158V6.03682V6.03206V6.0273V6.02254V6.01778V6.01302V6.00826V6.0035V5.99874V5.99398V5.98922V5.98446V5.9797V5.97494V5.97018V5.96542V5.96066V5.9559V5.95114V5.94638V5.94162V5.93686V5.9321V5.92734V5.92258V5.91782V5.91306V5.9083V5.90354V5.89878V5.89402V5.88926V5.8845V5.87974V5.87498V5.87022V5.86546V5.8607V5.85594V5.85118V5.84642V5.84166V5.8369V5.83214V5.82738V5.82262V5.81786V5.8131V5.80834V5.80358V5.79882V5.79406V5.7893V5.78454V5.77978V5.77502V5.77026V5.7655V5.76074V5.75598V5.75122V5.74646V5.7417V5.73694V5.73219V5.72743V5.72267V5.71791V5.71315V5.70839V5.70363V5.69887V5.69411V5.68935V5.68459V5.67983V5.67507V5.67031V5.66555V5.66079V5.65604V5.65128V5.64652V5.64176V5.637V5.63224V5.62748V5.62272V5.61796V5.6132V5.60844V5.60368V5.59893V5.59417V5.58941V5.58465V5.57989V5.57513V5.57037V5.56561V5.56085V5.55609V5.55134V5.54658V5.54182V5.53706V5.5323V5.52754V5.52278V5.51802V5.51326V5.50851V5.50375V5.49899V5.49423V5.48947V5.48471V5.47995V5.47519V5.47044V5.46568V5.46092V5.45616V5.4514V5.44664V5.44188V5.43712V5.43237V5.42761V5.42285V5.41809V5.41333V5.40857V5.40381V5.39906V5.3943V5.38954V5.38478V5.38002V5.37526V5.3705V5.36575V5.36099V5.35623V5.35147V5.34671V5.34195V5.3372V5.33244V5.32768V5.32292V5.31816V5.3134V5.30865V5.30389V5.29913V5.29437V5.28961V5.28485V5.2801V5.27534V5.27058V5.26582V5.26106V5.2563V5.25155V5.24679V5.24203V5.23727V5.23251V5.22776V5.223V5.21824V5.21348V5.20872V5.20396V5.19921V5.19445V5.18969V5.18493V5.18017V5.17542V5.17066V5.1659V5.16114V5.15638V5.15163V5.14687V5.14211V5.13735V5.1326V5.12784V5.12308V5.11832V5.11356V5.10881V5.10405V5.09929V5.09453V5.08977V5.08502V5.08026V5.0755V5.07074V5.06599V5.06123V5.05647V5.05171V5.04695V5.0422V5.03744V5.03268V5.02792V5.02317V5.01841V5.01365V5.00889V5.00413V4.99938V4.99462V4.98986V4.9851V4.98035V4.97559V4.97083V4.96607V4.96132V4.95656V4.9518V4.94704V4.94229V4.93753V4.93277V4.92801V4.92326V4.9185V4.91374V4.90898V4.90423V4.89947V4.89471V4.88995V4.8852V4.88044V4.87568V4.87092V4.86617V4.86141V4.85665V4.85189V4.84714V4.84238V4.83762V4.83286V4.82811V4.82335V4.81859V4.81384V4.80908V4.80432V4.79956V4.79481V4.79005V4.78529V4.78053V4.77578V4.77102V4.76626V4.76151V4.75675V4.75199V4.74723V4.74248V4.73772V4.73296V4.72821V4.72345V4.71869V4.71393V4.70918V4.70442V4.69966V4.69491V4.69015V4.68539V4.68063V4.67588V4.67112V4.66636V4.66161V4.65685V4.65209V4.64733V4.64258V4.63782V4.63306V4.62831V4.62355V4.61879V4.61404V4.60928V4.60452V4.59976V4.59501V4.59025V4.58549V4.58074V4.57598V4.57122V4.56647V4.56171V4.55695V4.5522V4.54744V4.54268V4.53792V4.53317V4.52841V4.52365V4.5189V4.51414V4.50938V4.50463V4.49987V4.49511V4.49036V4.4856V4.48084V4.47609V4.47133V4.46657V4.46181V4.45706V4.4523V4.44754V4.44279V4.43803V4.43327V4.42852V4.42376V4.419V4.41425V4.40949V4.40473V4.39998V4.39522V4.39046V4.38571V4.38095V4.37619V4.37144V4.36668V4.36192V4.35717V4.35241V4.34765V4.3429V4.33814V4.33338V4.32863V4.32387V4.31911V4.31436V4.3096V4.30484V4.30009V4.29533V4.29057V4.28582V4.28106V4.2763V4.27155V4.26679V4.26203V4.25728V4.25252V4.24776V4.24301V4.23825V4.23349V4.22874V4.22398V4.21922V4.21447V4.20971V4.20496V4.2002V4.19544V4.19069V4.18593V4.18117V4.17642V4.17166V4.1669V4.16215V4.15739V4.15263V4.14788V4.14312V4.13836V4.13361V4.12885V4.12409V4.11934V4.11458V4.10983V4.10507V4.10031V4.09556V4.0908V4.08604V4.08129V4.07653V4.07177V4.06702V4.06226V4.0575V4.05275V4.04799V4.04323V4.03848V4.03372V4.02897V4.02421V4.01945V4.0147V4.00994V4.00518V4.00043V3.99567V3.99091V3.98616V3.9814V3.97664V3.97189V3.96713V3.96238V3.95762V3.95286V3.94811V3.94335V3.93859V3.93384V3.92908V3.92432V3.91957V3.91481V3.91006V3.9053V3.90054V3.89579V3.89103V3.88627V3.88152V3.87676V3.872V3.86725V3.86249V3.85774V3.85298V3.84822V3.84347V3.83871V3.83395V3.8292V3.82444V3.81969V3.81493V3.81017V3.80542V3.80066V3.7959V3.79115V3.78639V3.78163V3.77688V3.77212V3.76737V3.76261V3.75785V3.7531V3.74834V3.74358V3.73883V3.73407V3.72932V3.72456V3.7198V3.71505V3.71029V3.70553V3.70078V3.69602V3.69126V3.68651V3.68175V3.677V3.67224V3.66748V3.66273V3.65797V3.65321V3.64846V3.6437V3.63895C22.2952 3.45309 22.256 3.30877 22.1643 3.20438C22.0727 3.10011 21.9362 3.04404 21.76 3.01832L21.7598 3.0183C21.482 2.97889 21.2046 2.94041 20.9276 2.90199C20.0677 2.78273 19.2118 2.66402 18.3606 2.51977C16.2727 2.16297 14.202 1.74902 12.2291 0.954041L12.229 0.953993C12.1491 0.922021 12.0558 0.914965 11.9652 0.921191C11.8741 0.927453 11.7823 0.947394 11.703 0.972494L11.7029 0.972504C11.4765 1.04437 11.2534 1.12725 11.0316 1.20962C11.0105 1.21744 10.9895 1.22527 10.9684 1.23308C10.7254 1.32323 10.4836 1.41153 10.2378 1.48412L10.2376 1.48416C7.65225 2.25665 4.99689 2.6592 2.32746 3.01018L2.32742 3.01019C2.08449 3.04232 1.9163 3.08999 1.81317 3.20674C1.70998 3.32356 1.6822 3.49783 1.6822 3.7501V10.677V10.6887V10.7005V10.7123V10.724V10.7358V10.7475V10.7593V10.7711V10.7828V10.7946V10.8064V10.8181V10.8299V10.8416V10.8534V10.8652V10.8769V10.8887V10.9005V10.9122V10.924V10.9357V10.9475V10.9593V10.971V10.9828V10.9945V11.0063V11.0181V11.0298V11.0416V11.0534V11.0651V11.0769V11.0886V11.1004V11.1122V11.1239V11.1357V11.1475V11.1592V11.171V11.1827V11.1945V11.2063V11.218V11.2298V11.2415V11.2533V11.2651V11.2768V11.2886V11.3003V11.3121V11.3239V11.3356V11.3474V11.3592V11.3709V11.3827V11.3944V11.4062V11.418V11.4297V11.4415V11.4532V11.465V11.4768V11.4885V11.5003V11.5121V11.5238V11.5356V11.5473V11.5591V11.5709V11.5826V11.5944V11.6061V11.6179V11.6297V11.6414V11.6532V11.6649V11.6767V11.6885V11.7002V11.712V11.7238V11.7355V11.7473V11.759V11.7708V11.7826V11.7943V11.8061V11.8178V11.8296V11.8414V11.8531V11.8649V11.8766V11.8884V11.9002V11.9119V11.9237V11.9354V11.9472V11.959V11.9707V11.9825V11.9943V12.006V12.0178V12.0295V12.0413V12.0531V12.0648V12.0766V12.0883V12.1001V12.1119V12.1236V12.1354V12.1471V12.1589V12.1707V12.1824V12.1942V12.2059V12.2177V12.2295V12.2412V12.253V12.2647V12.2765V12.2883V12.3V12.3118V12.3235V12.3353V12.3471V12.3588V12.3706V12.3824V12.3941V12.4059V12.4176V12.4294V12.4412V12.4529V12.4647V12.4764V12.4882V12.5V12.5117V12.5235V12.5352V12.547V12.5588V12.5705V12.5823V12.594V12.6058V12.6176V12.6293V12.6411V12.6528V12.6646V12.6764V12.6881V12.6999V12.7116V12.7234V12.7352V12.7469V12.7587V12.7704V12.7822V12.794V12.8057V12.8175V12.8292V12.841V12.8528V12.8645V12.8763V12.888V12.8998V12.9116V12.9233V12.9351V12.9468V12.9586V12.9704V12.9821V12.9939V13.0056V13.0174V13.0292V13.0409V13.0527V13.0644V13.0762V13.088V13.0997V13.1115V13.1232V13.135V13.1468V13.1585V13.1703V13.182V13.1938V13.2056V13.2173V13.2291V13.2409V13.2526V13.2644V13.2761V13.2879V13.2997V13.3114V13.3232V13.3349V13.3467V13.3585V13.3702V13.382V13.3937V13.4055V13.4173V13.429V13.4408V13.4525V13.4643V13.4761V13.4878V13.4996V13.5113V13.5231V13.5349V13.5466V13.5584V13.5701V13.5819V13.5937V13.6054V13.6172V13.6289V13.6407V13.6525V13.6642V13.676V13.6877V13.6995V13.7113V13.723V13.7348V13.7465V13.7583V13.7701V13.7818V13.7936V13.8053V13.8171V13.8289V13.8406V13.8524V13.8641V13.8759V13.8877V13.8994V13.9112V13.9229V13.9347V13.9465V13.9582V13.97V13.9817V13.9935V14.0053V14.017V14.0288V14.0405V14.0523V14.0641V14.0758V14.0876V14.0993V14.1111V14.1229V14.1346V14.1464V14.1581V14.1699V14.1817V14.1934V14.2052V14.2169V14.2287V14.2405V14.2522V14.264V14.2757V14.2875V14.2993V14.311V14.3228V14.3345V14.3463V14.3581V14.3698V14.3816V14.3933V14.4051V14.4169V14.4286V14.4404V14.4521V14.4639V14.4757V14.4874V14.4992V14.5109V14.5227V14.5345V14.5462V14.558V14.5697V14.5815V14.5933V14.605V14.6168V14.6285V14.6403V14.6521V14.6638V14.6756V14.6873V14.6991V14.7109V14.7226V14.7344V14.7461V14.7579V14.7697V14.7814V14.7932V14.8049V14.8167V14.8285V14.8402V14.852V14.8638V14.8755V14.8873V14.899V14.9108V14.9226V14.9343V14.9461V14.9578V14.9696V14.9814V14.9931V15.0049V15.0166V15.0284V15.0402V15.0519V15.0637V15.0754V15.0872V15.099V15.1107V15.1225V15.1342V15.146V15.1578V15.1695V15.1813V15.193V15.2048V15.2166V15.2283V15.2401V15.2518V15.2636V15.2754V15.2871V15.2989V15.3107V15.3224V15.3342V15.3459V15.3577V15.3695V15.3812V15.393V15.4047V15.4165V15.4283V15.44V15.4518V15.4635V15.4753V15.4871V15.4988V15.5106V15.5223V15.5341V15.5459V15.5576V15.5694V15.5811V15.5929V15.6047V15.6164V15.6282V15.64V15.6517V15.6635V15.6752V15.687V15.6988V15.7105V15.7223V15.734V15.7458V15.7576V15.7693V15.7811V15.7928V15.8046V15.8164V15.8281V15.8399V15.8517V15.8634V15.8752V15.8869V15.8987V15.9105V15.9222V15.934V15.9457V15.9575V15.9693V15.981V15.9928V16.0045V16.0163V16.0281V16.0398V16.0516V16.0634V16.0751V16.0869V16.0986V16.1104V16.1222V16.1339V16.1457V16.1574V16.1692V16.181V16.1927V16.2045V16.2163V16.228V16.2398V16.2515V16.2633V16.2751V16.2868V16.2986V16.3103V16.3221V16.3339V16.3456V16.3574V16.3692V16.3809V16.3927V16.4044V16.4162V16.428V16.4397V16.4515V16.4633V16.475V16.4868V16.4985V16.5103V16.5221V16.5338V16.5456V16.5573V16.5691V16.5809V16.5926V16.6044V16.6162V16.6279V16.6397V16.6514V16.6632V16.675V16.6867V16.6981C1.6759 17.0833 1.69576 17.4686 1.74163 17.8511Z" fill="#D61116" stroke="white" stroke-width="0.1"/>
<g id="Vector_2">
<mask id="path-2-inside-1_287_39" fill="white">
<path d="M2.66442 11.194C2.66442 9.1147 2.66442 7.03537 2.66442 4.95604C2.66442 4.24741 2.95619 3.9271 3.65134 3.82618C6.04459 3.47881 8.4269 3.07806 10.7436 2.35773C10.9627 2.29846 11.1778 2.22518 11.3876 2.13834C11.7852 1.95698 12.1601 1.97965 12.5708 2.12883C14.4053 2.79578 16.3135 3.1702 18.2304 3.50075C18.9467 3.62434 19.6667 3.72892 20.3859 3.83349C20.9855 3.92052 21.3057 4.27227 21.3086 4.8851C21.3137 5.98863 21.3086 7.09217 21.3086 8.19643C21.3086 11.0485 21.3203 13.9057 21.3049 16.7599C21.2918 19.2866 20.3341 21.3964 18.3748 22.9943C17.7913 23.4711 17.1071 23.8484 16.4222 24.1739C15.1427 24.7794 13.8298 25.3096 12.5321 25.8844C12.3603 25.9664 12.1722 26.0086 11.9819 26.0077C11.7916 26.0068 11.6039 25.9629 11.4329 25.8793C10.1308 25.2942 8.80693 24.7567 7.51439 24.1592C4.3866 22.7164 2.76362 20.2468 2.67317 16.8031C2.62357 14.9346 2.66442 13.064 2.66442 11.194ZM20.3771 4.78199C19.8337 4.69862 19.3304 4.62622 18.8285 4.54359C16.5673 4.17428 14.317 3.75524 12.1506 2.9786C12.0412 2.94239 11.9231 2.94239 11.8136 2.9786C10.4525 3.47589 9.04983 3.82179 7.63109 4.09603C6.30281 4.35345 4.96649 4.56918 3.61049 4.80685C3.60684 4.86682 3.59736 4.94726 3.59736 5.02624C3.59736 8.95771 3.59736 12.8892 3.59736 16.8206C3.58554 18.4606 4.15562 20.0513 5.20575 21.3086C5.27067 21.3869 5.34215 21.46 5.4202 21.5463C5.445 21.4922 5.45886 21.4732 5.45886 21.4607C5.45886 20.0925 5.46469 18.7242 5.45521 17.356C5.45521 17.2762 5.3633 17.1695 5.28598 17.1241C4.83593 16.8609 4.57333 16.4799 4.53759 15.9541C4.51936 15.6908 4.52811 15.4253 4.52811 15.1606C4.52811 14.0849 5.06788 13.54 6.13285 13.5386H6.83456V12.6244C6.17807 12.4906 5.92496 12.1776 5.92423 11.518C5.92423 11.281 5.93517 11.0426 5.9184 10.8072C5.91202 10.7045 5.87024 10.6073 5.80023 10.5322C5.69373 10.4386 5.60882 10.3228 5.55138 10.193C5.49395 10.0632 5.46536 9.92242 5.46761 9.78042C5.46761 9.32482 5.44281 8.8663 5.47855 8.41289C5.4946 8.20008 5.57338 7.94194 5.7178 7.80153C5.90891 7.61504 5.94539 7.43076 5.92934 7.1982C5.92351 7.10713 5.92351 7.01577 5.92934 6.9247C5.94821 6.58864 6.08717 6.27064 6.32078 6.02891C6.55439 5.78718 6.86703 5.63788 7.20146 5.60836C7.52597 5.57509 7.85163 5.65958 8.1193 5.8465C8.38698 6.03341 8.57893 6.31036 8.66032 6.62706C8.72086 6.86985 8.69095 7.13385 8.72305 7.38542C8.73331 7.49568 8.77856 7.59974 8.85216 7.68232C8.96206 7.78021 9.04959 7.90073 9.10875 8.03565C9.16792 8.17058 9.19734 8.31672 9.19499 8.46408C9.19499 8.89262 9.21614 9.32336 9.18696 9.74971C9.17238 9.95813 9.12788 10.2324 8.98929 10.3501C8.69752 10.5995 8.71648 10.8935 8.72086 11.2079C8.72086 11.3812 8.72524 11.5553 8.71721 11.7279C8.70893 11.9301 8.63431 12.1239 8.50493 12.2793C8.37555 12.4347 8.19864 12.5429 8.00164 12.5871L7.80908 12.6332V13.5217H11.5029V12.1645L11.357 12.1374C10.5546 11.9787 10.1279 11.4639 10.1265 10.6463C10.1265 9.73435 10.1192 8.81803 10.1265 7.90976C10.1254 7.56798 10.2535 7.2385 10.4851 6.98771C10.7167 6.73692 11.0345 6.58348 11.3745 6.55832C11.7826 6.52577 12.1926 6.52577 12.6007 6.55832C12.936 6.58464 13.2494 6.73597 13.4789 6.98249C13.7085 7.229 13.8375 7.55279 13.8407 7.89001C13.8524 8.85679 13.8509 9.8243 13.8407 10.7911C13.8345 11.0806 13.7373 11.3608 13.563 11.5918C13.3886 11.8228 13.1461 11.9927 12.8698 12.0774C12.7415 12.1169 12.608 12.1374 12.4767 12.1674V13.5276H16.1814C16.1814 13.287 16.1749 13.061 16.1814 12.8358C16.1873 12.6895 16.1559 12.6164 15.986 12.582C15.5374 12.4935 15.2631 12.1476 15.2507 11.6906C15.2427 11.3981 15.2602 11.1055 15.2419 10.813C15.2313 10.703 15.1837 10.5999 15.107 10.5205C15.0028 10.4253 14.9197 10.3093 14.863 10.18C14.8064 10.0506 14.7774 9.91074 14.778 9.76945C14.778 9.32263 14.751 8.87288 14.789 8.42971C14.8049 8.19597 14.8937 7.97317 15.0428 7.79275C15.1203 7.72025 15.1797 7.63055 15.2163 7.53085C15.2529 7.43115 15.2657 7.32423 15.2536 7.21868C15.2478 7.1276 15.2478 7.03625 15.2536 6.94517C15.2821 6.23654 15.8094 5.68661 16.5308 5.61275C16.8601 5.58268 17.189 5.67292 17.4571 5.86684C17.7252 6.06077 17.9144 6.3453 17.9897 6.66801C18.0294 6.8828 18.0458 7.10127 18.0386 7.3196C18.0386 7.49072 18.0568 7.62455 18.2107 7.74375C18.4295 7.91561 18.5025 8.17449 18.5025 8.45165C18.5025 8.89043 18.5207 9.32921 18.4945 9.76434C18.4821 9.96471 18.4434 10.2368 18.3106 10.3406C17.9897 10.5922 18.0451 10.9066 18.0408 11.2262C18.0408 11.39 18.0473 11.5546 18.0408 11.7184C18.032 11.9253 17.9546 12.1234 17.8209 12.2812C17.6872 12.4391 17.5048 12.5478 17.3026 12.5901C17.2435 12.6032 17.1844 12.6186 17.1282 12.6325V13.5612C17.493 13.5612 17.8489 13.5364 18.1983 13.5664C18.5149 13.591 18.8122 13.7286 19.0364 13.9541C19.2605 14.1796 19.3966 14.4782 19.4201 14.7957C19.4496 15.2049 19.4496 15.6158 19.4201 16.025C19.4086 16.2498 19.3373 16.4673 19.2136 16.6552C19.09 16.8431 18.9185 16.9944 18.7169 17.0934C18.5375 17.1878 18.5047 17.2996 18.5054 17.4788C18.5112 18.7374 18.5054 19.9967 18.5054 21.2552C18.5054 21.343 18.5134 21.4308 18.5215 21.5843C18.625 21.4673 18.6914 21.3986 18.7512 21.3247C19.8454 19.9901 20.3727 18.4529 20.3735 16.7307C20.3735 12.8446 20.3735 8.95869 20.3735 5.07305L20.3771 4.78199ZM17.5747 17.3055H6.41952C6.41123 17.3453 6.40538 17.3856 6.40201 17.4262C6.40201 19.0496 6.40201 20.6724 6.40638 22.2959C6.41166 22.3467 6.42735 22.3958 6.45245 22.4402C6.47755 22.4846 6.51154 22.5234 6.55227 22.554C6.84404 22.7508 7.14019 22.9592 7.46041 23.1032C8.91926 23.7614 10.3847 24.3962 11.853 25.028C11.9707 25.062 12.0966 25.0522 12.2075 25.0002C13.2681 24.5468 14.3323 24.0985 15.3798 23.6159C16.0626 23.3014 16.7198 22.9314 17.3894 22.5869C17.5353 22.5138 17.5812 22.3968 17.5783 22.2315C17.5681 21.6845 17.5747 21.1346 17.5747 20.5905V17.3055ZM11.985 14.4827H6.14963C5.58578 14.4827 5.46834 14.6041 5.46761 15.1789C5.46761 15.3329 5.46761 15.4877 5.46761 15.6432C5.46761 16.2283 5.59088 16.3541 6.16713 16.3541H17.8124C17.8672 16.3541 17.9211 16.3541 17.9758 16.3541C18.3274 16.3387 18.4937 16.1786 18.5061 15.8312C18.5142 15.6118 18.5061 15.3924 18.5061 15.173C18.5061 14.6026 18.3858 14.4812 17.8197 14.4812L11.985 14.4827ZM12.9173 9.33287C12.9173 8.88677 12.9209 8.43995 12.9173 7.99386C12.9129 7.65892 12.7495 7.48999 12.4147 7.48195C12.1229 7.47244 11.8311 7.47171 11.5394 7.48195C11.2221 7.49438 11.0594 7.6655 11.0572 7.98727C11.0528 8.8897 11.0528 9.79163 11.0572 10.6931C11.0572 11.0222 11.2337 11.205 11.5591 11.2138C11.8311 11.2233 12.1047 11.2203 12.3768 11.2138C12.7415 11.2065 12.9114 11.0331 12.9151 10.6726C12.9202 10.2265 12.9173 9.78042 12.9173 9.33287ZM8.24892 8.43117H6.42535V9.78993H8.24892V8.43117ZM15.7263 9.7892H17.5499V8.43044H15.7263V9.7892ZM6.87322 11.6577H7.76823V10.756H6.87322V11.6577ZM16.1997 10.7552V11.6533H17.0998V10.7552H16.1997ZM7.79157 7.46074C7.76312 7.1514 7.90098 6.80915 7.57274 6.62998C7.4942 6.59465 7.4089 6.577 7.32283 6.57826C7.23676 6.57953 7.15201 6.59968 7.07454 6.6373C6.75943 6.82305 6.87395 7.15506 6.8703 7.46074H7.79157ZM17.1115 7.46074C17.0976 7.15213 17.2172 6.81281 16.8926 6.63437C16.8141 6.59891 16.7288 6.58094 16.6427 6.5817C16.5566 6.58245 16.4716 6.60192 16.3937 6.63876C16.072 6.82524 16.2106 7.16237 16.188 7.46074H17.1115Z"/>
</mask>
<path d="M2.66442 11.194C2.66442 9.1147 2.66442 7.03537 2.66442 4.95604C2.66442 4.24741 2.95619 3.9271 3.65134 3.82618C6.04459 3.47881 8.4269 3.07806 10.7436 2.35773C10.9627 2.29846 11.1778 2.22518 11.3876 2.13834C11.7852 1.95698 12.1601 1.97965 12.5708 2.12883C14.4053 2.79578 16.3135 3.1702 18.2304 3.50075C18.9467 3.62434 19.6667 3.72892 20.3859 3.83349C20.9855 3.92052 21.3057 4.27227 21.3086 4.8851C21.3137 5.98863 21.3086 7.09217 21.3086 8.19643C21.3086 11.0485 21.3203 13.9057 21.3049 16.7599C21.2918 19.2866 20.3341 21.3964 18.3748 22.9943C17.7913 23.4711 17.1071 23.8484 16.4222 24.1739C15.1427 24.7794 13.8298 25.3096 12.5321 25.8844C12.3603 25.9664 12.1722 26.0086 11.9819 26.0077C11.7916 26.0068 11.6039 25.9629 11.4329 25.8793C10.1308 25.2942 8.80693 24.7567 7.51439 24.1592C4.3866 22.7164 2.76362 20.2468 2.67317 16.8031C2.62357 14.9346 2.66442 13.064 2.66442 11.194ZM20.3771 4.78199C19.8337 4.69862 19.3304 4.62622 18.8285 4.54359C16.5673 4.17428 14.317 3.75524 12.1506 2.9786C12.0412 2.94239 11.9231 2.94239 11.8136 2.9786C10.4525 3.47589 9.04983 3.82179 7.63109 4.09603C6.30281 4.35345 4.96649 4.56918 3.61049 4.80685C3.60684 4.86682 3.59736 4.94726 3.59736 5.02624C3.59736 8.95771 3.59736 12.8892 3.59736 16.8206C3.58554 18.4606 4.15562 20.0513 5.20575 21.3086C5.27067 21.3869 5.34215 21.46 5.4202 21.5463C5.445 21.4922 5.45886 21.4732 5.45886 21.4607C5.45886 20.0925 5.46469 18.7242 5.45521 17.356C5.45521 17.2762 5.3633 17.1695 5.28598 17.1241C4.83593 16.8609 4.57333 16.4799 4.53759 15.9541C4.51936 15.6908 4.52811 15.4253 4.52811 15.1606C4.52811 14.0849 5.06788 13.54 6.13285 13.5386H6.83456V12.6244C6.17807 12.4906 5.92496 12.1776 5.92423 11.518C5.92423 11.281 5.93517 11.0426 5.9184 10.8072C5.91202 10.7045 5.87024 10.6073 5.80023 10.5322C5.69373 10.4386 5.60882 10.3228 5.55138 10.193C5.49395 10.0632 5.46536 9.92242 5.46761 9.78042C5.46761 9.32482 5.44281 8.8663 5.47855 8.41289C5.4946 8.20008 5.57338 7.94194 5.7178 7.80153C5.90891 7.61504 5.94539 7.43076 5.92934 7.1982C5.92351 7.10713 5.92351 7.01577 5.92934 6.9247C5.94821 6.58864 6.08717 6.27064 6.32078 6.02891C6.55439 5.78718 6.86703 5.63788 7.20146 5.60836C7.52597 5.57509 7.85163 5.65958 8.1193 5.8465C8.38698 6.03341 8.57893 6.31036 8.66032 6.62706C8.72086 6.86985 8.69095 7.13385 8.72305 7.38542C8.73331 7.49568 8.77856 7.59974 8.85216 7.68232C8.96206 7.78021 9.04959 7.90073 9.10875 8.03565C9.16792 8.17058 9.19734 8.31672 9.19499 8.46408C9.19499 8.89262 9.21614 9.32336 9.18696 9.74971C9.17238 9.95813 9.12788 10.2324 8.98929 10.3501C8.69752 10.5995 8.71648 10.8935 8.72086 11.2079C8.72086 11.3812 8.72524 11.5553 8.71721 11.7279C8.70893 11.9301 8.63431 12.1239 8.50493 12.2793C8.37555 12.4347 8.19864 12.5429 8.00164 12.5871L7.80908 12.6332V13.5217H11.5029V12.1645L11.357 12.1374C10.5546 11.9787 10.1279 11.4639 10.1265 10.6463C10.1265 9.73435 10.1192 8.81803 10.1265 7.90976C10.1254 7.56798 10.2535 7.2385 10.4851 6.98771C10.7167 6.73692 11.0345 6.58348 11.3745 6.55832C11.7826 6.52577 12.1926 6.52577 12.6007 6.55832C12.936 6.58464 13.2494 6.73597 13.4789 6.98249C13.7085 7.229 13.8375 7.55279 13.8407 7.89001C13.8524 8.85679 13.8509 9.8243 13.8407 10.7911C13.8345 11.0806 13.7373 11.3608 13.563 11.5918C13.3886 11.8228 13.1461 11.9927 12.8698 12.0774C12.7415 12.1169 12.608 12.1374 12.4767 12.1674V13.5276H16.1814C16.1814 13.287 16.1749 13.061 16.1814 12.8358C16.1873 12.6895 16.1559 12.6164 15.986 12.582C15.5374 12.4935 15.2631 12.1476 15.2507 11.6906C15.2427 11.3981 15.2602 11.1055 15.2419 10.813C15.2313 10.703 15.1837 10.5999 15.107 10.5205C15.0028 10.4253 14.9197 10.3093 14.863 10.18C14.8064 10.0506 14.7774 9.91074 14.778 9.76945C14.778 9.32263 14.751 8.87288 14.789 8.42971C14.8049 8.19597 14.8937 7.97317 15.0428 7.79275C15.1203 7.72025 15.1797 7.63055 15.2163 7.53085C15.2529 7.43115 15.2657 7.32423 15.2536 7.21868C15.2478 7.1276 15.2478 7.03625 15.2536 6.94517C15.2821 6.23654 15.8094 5.68661 16.5308 5.61275C16.8601 5.58268 17.189 5.67292 17.4571 5.86684C17.7252 6.06077 17.9144 6.3453 17.9897 6.66801C18.0294 6.8828 18.0458 7.10127 18.0386 7.3196C18.0386 7.49072 18.0568 7.62455 18.2107 7.74375C18.4295 7.91561 18.5025 8.17449 18.5025 8.45165C18.5025 8.89043 18.5207 9.32921 18.4945 9.76434C18.4821 9.96471 18.4434 10.2368 18.3106 10.3406C17.9897 10.5922 18.0451 10.9066 18.0408 11.2262C18.0408 11.39 18.0473 11.5546 18.0408 11.7184C18.032 11.9253 17.9546 12.1234 17.8209 12.2812C17.6872 12.4391 17.5048 12.5478 17.3026 12.5901C17.2435 12.6032 17.1844 12.6186 17.1282 12.6325V13.5612C17.493 13.5612 17.8489 13.5364 18.1983 13.5664C18.5149 13.591 18.8122 13.7286 19.0364 13.9541C19.2605 14.1796 19.3966 14.4782 19.4201 14.7957C19.4496 15.2049 19.4496 15.6158 19.4201 16.025C19.4086 16.2498 19.3373 16.4673 19.2136 16.6552C19.09 16.8431 18.9185 16.9944 18.7169 17.0934C18.5375 17.1878 18.5047 17.2996 18.5054 17.4788C18.5112 18.7374 18.5054 19.9967 18.5054 21.2552C18.5054 21.343 18.5134 21.4308 18.5215 21.5843C18.625 21.4673 18.6914 21.3986 18.7512 21.3247C19.8454 19.9901 20.3727 18.4529 20.3735 16.7307C20.3735 12.8446 20.3735 8.95869 20.3735 5.07305L20.3771 4.78199ZM17.5747 17.3055H6.41952C6.41123 17.3453 6.40538 17.3856 6.40201 17.4262C6.40201 19.0496 6.40201 20.6724 6.40638 22.2959C6.41166 22.3467 6.42735 22.3958 6.45245 22.4402C6.47755 22.4846 6.51154 22.5234 6.55227 22.554C6.84404 22.7508 7.14019 22.9592 7.46041 23.1032C8.91926 23.7614 10.3847 24.3962 11.853 25.028C11.9707 25.062 12.0966 25.0522 12.2075 25.0002C13.2681 24.5468 14.3323 24.0985 15.3798 23.6159C16.0626 23.3014 16.7198 22.9314 17.3894 22.5869C17.5353 22.5138 17.5812 22.3968 17.5783 22.2315C17.5681 21.6845 17.5747 21.1346 17.5747 20.5905V17.3055ZM11.985 14.4827H6.14963C5.58578 14.4827 5.46834 14.6041 5.46761 15.1789C5.46761 15.3329 5.46761 15.4877 5.46761 15.6432C5.46761 16.2283 5.59088 16.3541 6.16713 16.3541H17.8124C17.8672 16.3541 17.9211 16.3541 17.9758 16.3541C18.3274 16.3387 18.4937 16.1786 18.5061 15.8312C18.5142 15.6118 18.5061 15.3924 18.5061 15.173C18.5061 14.6026 18.3858 14.4812 17.8197 14.4812L11.985 14.4827ZM12.9173 9.33287C12.9173 8.88677 12.9209 8.43995 12.9173 7.99386C12.9129 7.65892 12.7495 7.48999 12.4147 7.48195C12.1229 7.47244 11.8311 7.47171 11.5394 7.48195C11.2221 7.49438 11.0594 7.6655 11.0572 7.98727C11.0528 8.8897 11.0528 9.79163 11.0572 10.6931C11.0572 11.0222 11.2337 11.205 11.5591 11.2138C11.8311 11.2233 12.1047 11.2203 12.3768 11.2138C12.7415 11.2065 12.9114 11.0331 12.9151 10.6726C12.9202 10.2265 12.9173 9.78042 12.9173 9.33287ZM8.24892 8.43117H6.42535V9.78993H8.24892V8.43117ZM15.7263 9.7892H17.5499V8.43044H15.7263V9.7892ZM6.87322 11.6577H7.76823V10.756H6.87322V11.6577ZM16.1997 10.7552V11.6533H17.0998V10.7552H16.1997ZM7.79157 7.46074C7.76312 7.1514 7.90098 6.80915 7.57274 6.62998C7.4942 6.59465 7.4089 6.577 7.32283 6.57826C7.23676 6.57953 7.15201 6.59968 7.07454 6.6373C6.75943 6.82305 6.87395 7.15506 6.8703 7.46074H7.79157ZM17.1115 7.46074C17.0976 7.15213 17.2172 6.81281 16.8926 6.63437C16.8141 6.59891 16.7288 6.58094 16.6427 6.5817C16.5566 6.58245 16.4716 6.60192 16.3937 6.63876C16.072 6.82524 16.2106 7.16237 16.188 7.46074H17.1115Z" fill="#D61116" stroke="white" stroke-width="0.2" mask="url(#path-2-inside-1_287_39)"/>
</g>
<path id="Vector_3" d="M11.9359 18.3227H11.2351C11.2297 18.4351 11.2251 18.5361 11.2209 18.6346L11.2176 18.7148L11.1386 18.7289C10.7311 18.8018 10.4136 18.953 10.2019 19.1612C9.99249 19.3671 9.88127 19.6337 9.8912 19.9535C9.91167 20.242 10.0013 20.5213 10.1526 20.7679L10.1533 20.7691L10.1533 20.7691C10.3523 21.1036 10.7141 21.2351 11.1215 21.2739L11.212 21.2825V21.3735V22.2479V22.2983L11.1714 22.3283L11.096 22.384L11.0248 22.4367L10.9639 22.3723L10.5409 21.925H9.86102C9.87826 21.9714 9.8947 22.0173 9.91065 22.0618C9.92737 22.1084 9.94355 22.1536 9.95955 22.1963C10.007 22.3233 10.0553 22.4366 10.1188 22.5376L11.9359 18.3227ZM11.9359 18.3227V18.6184V18.6981L12.0136 18.7159C12.4563 18.8173 12.7678 18.9706 12.9699 19.177C13.1495 19.3604 13.2502 19.5933 13.273 19.8903H12.5762C12.5454 19.7963 12.5015 19.7053 12.433 19.6312C12.3433 19.5343 12.2197 19.4749 12.0545 19.4653L11.9487 19.4591V19.5651V20.435V20.518L12.0303 20.5333C12.4554 20.6132 12.7733 20.7737 12.9825 20.994C13.1902 21.2127 13.2979 21.4979 13.2905 21.8439L13.2905 21.844C13.2835 22.1729 13.1635 22.4519 12.9518 22.6632C12.7392 22.8754 12.4287 23.0245 12.0337 23.0813L11.9523 23.093L11.9481 23.1751C11.9427 23.2792 11.9374 23.3861 11.9317 23.5016H11.2391V23.1833V23.092L11.1482 23.0837C10.7047 23.0431 10.3404 22.8896 10.1188 22.5376L11.9359 18.3227ZM11.1064 20.5385L11.221 20.5554V20.4395V19.5666V19.4576L11.1123 19.467C10.9579 19.4805 10.829 19.5301 10.7357 19.6236C10.6424 19.7171 10.5961 19.8431 10.5846 19.9868C10.5725 20.1389 10.6149 20.2697 10.7139 20.3674C10.8095 20.4619 10.9471 20.5149 11.1064 20.5385ZM11.9487 22.269V22.3911L12.0684 22.367C12.2204 22.3365 12.3512 22.2795 12.4435 22.1839C12.5381 22.0859 12.5825 21.9576 12.5794 21.8064C12.5763 21.6582 12.5324 21.5302 12.4382 21.4346C12.3453 21.3403 12.2147 21.2891 12.0608 21.2704L11.9487 21.2568V21.3697V22.269Z" fill="#D61116" stroke="white" stroke-width="0.2"/>
</g>
<defs>
<clipPath id="clip0_287_39">
<rect width="22.4" height="28" fill="white" transform="translate(0.800003)"/>
</clipPath>
</defs>
</svg>
