<svg width="73" height="91" viewBox="0 0 73 91" fill="none" xmlns="http://www.w3.org/2000/svg">
<g id="Page-1">
<g id="cart">
<path id="Rectangle" fill-rule="evenodd" clip-rule="evenodd" d="M4.29753 2H66.9041L61.2975 10.4098L68.7729 16.0164H2.42868L10.8385 10.4098L4.29753 2Z" fill="#FFF5F5"/>
<rect id="Rectangle 7" x="0.5" y="14" width="71" height="75" rx="2" fill="#FAFAFA"/>
<path id="bag" fill-rule="evenodd" clip-rule="evenodd" d="M5.08524 55.006V20.6453C5.08524 19.2296 6.24547 18.082 7.67669 18.082L68.6533 82.1642C68.6533 84.0518 67.1423 85.582 65.2784 85.582H8.46016C6.59624 85.582 5.08524 84.0518 5.08524 82.1642V69.3945V65.9301V55.006ZM5.08524 62.4247V58.5765V62.4247Z" fill="#FFF5F5"/>
<path id="bag_2" d="M1.5 55.4631V17.8853C1.5 16.337 2.77049 15.082 4.33773 15.082H69.2612C70.2817 15.082 71.109 15.9187 71.109 16.9508V85.1639C71.109 87.2282 69.4544 88.9016 67.4134 88.9016H5.19564C3.15459 88.9016 1.5 87.2282 1.5 85.1639V71.1986V67.4098M1.5 63.5763V59.3678" stroke="#D61116" stroke-width="2.5" stroke-linecap="round"/>
<path id="Rectangle_2" d="M3.36311 15.082V3.86886C3.36311 2.83672 4.11401 2 5.04029 2L67.0958 2C68.0221 2 68.7729 2.83672 68.7729 3.86886V15.082" stroke="#D61116" stroke-width="2.5"/>
<path id="Oval" d="M20.65 34.7049C22.4563 34.7049 23.9205 33.2407 23.9205 31.4344C23.9205 29.6282 22.4563 28.1639 20.65 28.1639C18.8438 28.1639 17.3795 29.6282 17.3795 31.4344C17.3795 33.2407 18.8438 34.7049 20.65 34.7049Z" fill="#FFF5F5" stroke="#D61116" stroke-width="2.5" stroke-linecap="round"/>
<path id="Oval_2" d="M51.4861 34.7049C53.2923 34.7049 54.7566 33.2407 54.7566 31.4344C54.7566 29.6282 53.2923 28.1639 51.4861 28.1639C49.6798 28.1639 48.2156 29.6282 48.2156 31.4344C48.2156 33.2407 49.6798 34.7049 51.4861 34.7049Z" fill="#FFF5F5" stroke="#D61116" stroke-width="2.5" stroke-linecap="round"/>
<path id="Oval_3" d="M51.0189 34.7049C51.0189 42.9621 44.3251 49.6558 36.068 49.6558C27.8109 49.6558 21.1172 42.9621 21.1172 34.7049" stroke="#D61116" stroke-width="2.5" stroke-linecap="round"/>
<path id="Path-3" d="M4.35456 2.93146L10.933 9.42513C11.326 9.81311 11.3301 10.4463 10.9421 10.8393C10.875 10.9073 10.7984 10.9654 10.7148 11.0117L3.3631 15.082" stroke="#D61116" stroke-width="2.5" stroke-linecap="round"/>
<path id="Path-3_2" d="M67.94 2.99921L61.645 9.41967C61.2584 9.81402 61.2646 10.4472 61.659 10.8338C61.7248 10.8984 61.7993 10.9535 61.8802 10.9976L69.3673 15.082" stroke="#D61116" stroke-width="2.5" stroke-linecap="round"/>
</g>
</g>
</svg>
