<svg width="24" height="24" viewBox="0 0 24 24" fill="none" xmlns="http://www.w3.org/2000/svg">
<g id="support_agent">
<mask id="mask0_198_1552" style="mask-type:alpha" maskUnits="userSpaceOnUse" x="0" y="0" width="24" height="24">
<rect id="Bounding box" width="24" height="24" fill="#D9D9D9"/>
</mask>
<g mask="url(#mask0_198_1552)">
<path id="support_agent_2" d="M18.6 20.3375H10.8625V18.6625H18.6H18.6625V18.6V11.9249C18.6625 10.0753 18.0163 8.49697 16.7249 7.19349C15.4334 5.88984 13.859 5.23748 12.0055 5.23748C10.152 5.23748 8.57584 5.88983 7.28066 7.19342C5.9856 8.49689 5.33749 10.0753 5.33749 11.925V17.5375H4.19999C3.72226 17.5375 3.31455 17.3634 2.97354 17.013C2.63247 16.6624 2.46249 16.2426 2.46249 15.75V13.9C2.46249 13.5293 2.56698 13.2005 2.77566 12.9116C2.98327 12.6241 3.26174 12.4409 3.61385 12.3609L3.65963 12.3505L3.66239 12.3036L3.73723 11.0312C3.88639 9.98917 4.20074 9.01783 4.68017 8.11683C5.16018 7.21474 5.76821 6.43309 6.50428 5.77146C7.24028 5.10988 8.0796 4.59294 9.02265 4.22061C9.96495 3.84858 10.9571 3.66248 11.9997 3.66248C13.0422 3.66248 14.0329 3.84904 14.972 4.22196C15.912 4.59526 16.7516 5.11225 17.4909 5.77298C18.2303 6.43375 18.84 7.21081 19.3199 8.10455C19.7993 8.9971 20.1136 9.96418 20.2628 11.0062L20.3376 12.3036L20.3403 12.35L20.3855 12.3608C20.7224 12.441 20.9979 12.6128 21.2141 12.8771C21.4297 13.1405 21.5375 13.4472 21.5375 13.8V15.9C21.5375 16.2527 21.4297 16.5594 21.2141 16.8229C20.9979 17.0872 20.7224 17.259 20.3855 17.3392L20.3375 17.3506V17.4V18.6C20.3375 19.0783 20.1679 19.4862 19.8271 19.827C19.4862 20.1679 19.0783 20.3375 18.6 20.3375ZM6.67964 12.4559C6.55595 10.894 7.01707 9.54504 8.06359 8.40474C9.12998 7.24277 10.4574 6.66248 12.05 6.66248C13.4012 6.66248 14.5737 7.11505 15.5705 8.02122C16.5502 8.91192 17.1197 10.0164 17.2798 11.3372C15.903 11.3246 14.651 10.9407 13.5223 10.1855C12.3729 9.41653 11.4843 8.41221 10.8557 7.17173L10.7738 7.00992L10.7387 7.18788C10.5072 8.36189 10.032 9.41545 9.31297 10.3493C8.61207 11.2597 7.73456 11.9618 6.67964 12.4559ZM9.30527 13.7375C9.06748 13.7375 8.86911 13.6577 8.70624 13.4981C8.54369 13.3388 8.46249 13.1426 8.46249 12.9053C8.46249 12.6675 8.54226 12.4691 8.70186 12.3062C8.86115 12.1437 9.05736 12.0625 9.29472 12.0625C9.53251 12.0625 9.73088 12.1422 9.89375 12.3018C10.0563 12.4611 10.1375 12.6573 10.1375 12.8947C10.1375 13.1325 10.0577 13.3309 9.89813 13.4937C9.73883 13.6563 9.54263 13.7375 9.30527 13.7375ZM14.7053 13.7375C14.4675 13.7375 14.2691 13.6577 14.1062 13.4981C13.9437 13.3388 13.8625 13.1426 13.8625 12.9053C13.8625 12.6675 13.9423 12.4691 14.1019 12.3062C14.2612 12.1437 14.4574 12.0625 14.6947 12.0625C14.9325 12.0625 15.1309 12.1422 15.2938 12.3018C15.4563 12.4611 15.5375 12.6573 15.5375 12.8947C15.5375 13.1325 15.4577 13.3309 15.2981 13.4937C15.1388 13.6563 14.9426 13.7375 14.7053 13.7375Z" fill="#C4C4C4" stroke="white" stroke-width="0.125"/>
</g>
</g>
</svg>
